<?xml version="1.0" encoding="iso-8859-1"?>
<!-- Generator: Adobe Illustrator 19.0.0, SVG Export Plug-In . SVG Version: 6.00 Build 0)  -->
<svg version="1.1" id="Capa_1" xmlns="http://www.w3.org/2000/svg" xmlns:xlink="http://www.w3.org/1999/xlink" x="0px" y="0px"
	 viewBox="0 0 60 60" style="enable-background:new 0 0 60 60;" xml:space="preserve">
<path style="fill:#BDC3C7;" d="M9,27.812V25.5C9,24.119,7.881,23,6.5,23S4,24.119,4,25.5v5.717L9,27.812z"/>
<path style="fill:#BDC3C7;" d="M18,21.684V18.5c0-1.381-1.119-2.5-2.5-2.5S13,17.119,13,18.5V25h0.13L18,21.684z"/>
<path style="fill:#BDC3C7;" d="M51,27.812V25.5c0-1.381,1.119-2.5,2.5-2.5s2.5,1.119,2.5,2.5v5.717L51,27.812z"/>
<path style="fill:#BDC3C7;" d="M42,21.684V18.5c0-1.381,1.119-2.5,2.5-2.5s2.5,1.119,2.5,2.5V25h-0.13L42,21.684z"/>
<g>
	<path style="fill:#DADEE0;" d="M59.109,32.127L37.003,18.485l0.002,1.795c0.002,2.145-0.024,7.788-0.327,13.86l-0.016,0.932
		l0.922,0.114c6.879,0.853,14.676,1.819,20.026,5.296l0.281,0.126c0.144,0.039,0.292,0.059,0.441,0.059
		c0.439,0,0.854-0.17,1.168-0.479C59.823,39.874,60,39.452,60,39v-5.396C60,32.986,59.652,32.414,59.109,32.127z"/>
	<path style="fill:#DADEE0;" d="M22.995,20.28l0.002-1.795L0.891,32.127C0.348,32.414,0,32.986,0,33.604V39
		c0,0.92,0.748,1.668,1.667,1.668c0.148,0,0.297-0.02,0.441-0.059l0.281-0.126c5.351-3.477,13.147-4.444,20.057-5.3l0.922-0.114
		l-0.046-0.928C23.019,28.068,22.992,22.425,22.995,20.28z"/>
</g>
<path style="fill:#E6E7E8;" d="M29.736,48.11c0.146-0.147,0.383-0.147,0.529,0l5.979,3.147C38.198,40.036,38,16,38,16
	c0-4.008-0.84-6.971-1.731-9.047C35.238,4.55,32.745,1,30,1s-5.238,3.55-6.269,5.953C22.84,9.029,22,11.992,22,16
	c0,0-0.198,24.036,1.757,35.258L29.736,48.11z"/>
<path style="fill:none;stroke:#FFFFFF;stroke-width:2;stroke-linecap:round;stroke-miterlimit:10;" d="M26,12l2.345-2.345
	c0.914-0.914,2.396-0.914,3.311,0L34,12"/>
<path style="fill:#556080;" d="M41.874,54.222L30.264,48.11c-0.146-0.147-0.383-0.147-0.529,0l-11.609,6.112
	C18.046,54.296,18,54.4,18,54.509v4.101c0,0.311,0.347,0.497,0.606,0.324l11.201-3.816c0.119-0.072,0.268-0.072,0.387,0
	l11.201,3.816C41.653,59.107,42,58.921,42,58.61v-4.101C42,54.4,41.954,54.296,41.874,54.222z"/>
<g>
</g>
<g>
</g>
<g>
</g>
<g>
</g>
<g>
</g>
<g>
</g>
<g>
</g>
<g>
</g>
<g>
</g>
<g>
</g>
<g>
</g>
<g>
</g>
<g>
</g>
<g>
</g>
<g>
</g>
</svg>
