<?xml version="1.0" encoding="iso-8859-1"?>
<!-- Generator: Adobe Illustrator 19.0.0, SVG Export Plug-In . SVG Version: 6.00 Build 0)  -->
<svg version="1.1" id="Capa_1" xmlns="http://www.w3.org/2000/svg" xmlns:xlink="http://www.w3.org/1999/xlink" x="0px" y="0px"
	 viewBox="0 0 58 58" style="enable-background:new 0 0 58 58;" xml:space="preserve">
<path style="fill:#4EBDF4;" d="M29,58L29,58C15.8,58,5,47.2,5,34V24C5,10.8,15.8,0,29,0h0c13.2,0,24,10.8,24,24v10
	C53,47.2,42.2,58,29,58z"/>
<path style="fill:#546A79;" d="M8.245,12h41.51C45.589,4.842,37.835,0,29,0S12.411,4.842,8.245,12z"/>
<path style="fill:#FFFFFF;" d="M45,37c-2.75,0-5,2.25-5,5c0,0.017,0.005,0.033,0.005,0.05c-0.002,0-0.003,0-0.005,0
	C39.834,42.032,39.671,42,39.5,42c-2.475,0-4.5,2.025-4.5,4.5c0,2.475,2.025,4.5,4.5,4.5c0.171,0,0.334-0.032,0.5-0.051
	C40.166,50.968,40.329,51,40.5,51h5.398c2.287-2.273,4.117-5.002,5.348-8.033c-0.382-0.295-0.809-0.535-1.273-0.698
	C49.978,42.178,50,42.092,50,42C50,39.25,47.75,37,45,37z"/>
<path style="fill:#FFFFFF;" d="M19.982,19.18C19.986,19.119,20,19.062,20,19c0-1.657-1.343-3-3-3s-3,1.343-3,3h-1
	c-1.65,0-3,1.35-3,3c0,1.65,1.35,3,3,3h6c1.65,0,3-1.35,3-3C22,20.695,21.151,19.59,19.982,19.18z"/>
<path style="fill:#ECF0F1;" d="M28,27L5.067,35.699l0,0.001c0.031,0.432,0.074,0.86,0.126,1.286c0.005,0.039,0.01,0.078,0.015,0.116
	c0.04,0.314,0.09,0.625,0.14,0.936c0.857,5.003,3.271,9.492,6.729,12.939L31,30v-7h-1L28,27z"/>
<path style="fill:#95A5A5;" d="M24.488,37.219L17.47,45h5.775c2.2,0,4-1.8,4-4C27.245,39.236,26.081,37.747,24.488,37.219z"/>
<g>
</g>
<g>
</g>
<g>
</g>
<g>
</g>
<g>
</g>
<g>
</g>
<g>
</g>
<g>
</g>
<g>
</g>
<g>
</g>
<g>
</g>
<g>
</g>
<g>
</g>
<g>
</g>
<g>
</g>
</svg>
