<?xml version="1.0" encoding="iso-8859-1"?>
<!-- Generator: Adobe Illustrator 19.0.0, SVG Export Plug-In . SVG Version: 6.00 Build 0)  -->
<svg version="1.1" id="Capa_1" xmlns="http://www.w3.org/2000/svg" xmlns:xlink="http://www.w3.org/1999/xlink" x="0px" y="0px"
	 viewBox="0 0 58.953 58.953" style="enable-background:new 0 0 58.953 58.953;" xml:space="preserve">
<path style="fill:#546A79;" d="M26.977,49c-13.785,0-25-10.094-25-22.5S13.191,4,26.977,4s25,10.094,25,22.5S40.762,49,26.977,49z"
	/>
<path style="fill:#ECF0F1;" d="M26.977,11c-9.925,0-18,6.953-18,15.5c0,7.124,5.617,13.125,13.233,14.931
	c-0.137-0.456-0.233-0.93-0.233-1.431c0-2.761,2.239-5,5-5s5,2.239,5,5c0,0.501-0.096,0.974-0.233,1.431
	c7.615-1.806,13.233-7.807,13.233-14.931C44.977,17.953,36.902,11,26.977,11z"/>
<path style="fill:#38454F;" d="M26.977,4c3.551,0,6.928,0.674,9.99,1.88C36.859,2.622,32.432,0,26.977,0s-9.883,2.622-9.99,5.88
	C20.048,4.674,23.426,4,26.977,4z"/>
<g>
	<path style="fill:#FFFFFF;" d="M15.977,22c0.256,0,0.512-0.098,0.707-0.293l4-4c0.391-0.391,0.391-1.023,0-1.414
		s-1.023-0.391-1.414,0l-4,4c-0.391,0.391-0.391,1.023,0,1.414C15.465,21.902,15.721,22,15.977,22z"/>
	<path style="fill:#FFFFFF;" d="M19.267,21.29c-0.18,0.189-0.29,0.45-0.29,0.71s0.11,0.52,0.29,0.71c0.19,0.18,0.45,0.29,0.71,0.29
		c0.26,0,0.52-0.11,0.71-0.29c0.18-0.19,0.29-0.45,0.29-0.71s-0.11-0.521-0.29-0.71C20.316,20.92,19.636,20.92,19.267,21.29z"/>
	<path style="fill:#FFFFFF;" d="M26.977,21c0.26,0,0.52-0.11,0.71-0.29c0.18-0.19,0.29-0.45,0.29-0.71s-0.11-0.521-0.29-0.71
		c-0.37-0.37-1.05-0.37-1.42,0c-0.18,0.189-0.29,0.439-0.29,0.71c0,0.27,0.11,0.52,0.29,0.71C26.457,20.89,26.716,21,26.977,21z"/>
	<path style="fill:#FFFFFF;" d="M28.977,19c0.256,0,0.512-0.098,0.707-0.293l1-1c0.391-0.391,0.391-1.023,0-1.414
		s-1.023-0.391-1.414,0l-1,1c-0.391,0.391-0.391,1.023,0,1.414C28.465,18.902,28.721,19,28.977,19z"/>
	<path style="fill:#FFFFFF;" d="M29.27,21.293l-2,2c-0.391,0.391-0.391,1.023,0,1.414C27.465,24.902,27.721,25,27.977,25
		s0.512-0.098,0.707-0.293l2-2c0.391-0.391,0.391-1.023,0-1.414S29.66,20.902,29.27,21.293z"/>
	<path style="fill:#FFFFFF;" d="M25.267,25.29c-0.18,0.189-0.29,0.45-0.29,0.71s0.11,0.52,0.29,0.71c0.19,0.18,0.45,0.29,0.71,0.29
		c0.26,0,0.52-0.11,0.71-0.29c0.18-0.19,0.29-0.45,0.29-0.71c0-0.271-0.11-0.521-0.29-0.71C26.306,24.92,25.636,24.92,25.267,25.29z
		"/>
	<path style="fill:#FFFFFF;" d="M23.27,27.293l-3,3c-0.391,0.391-0.391,1.023,0,1.414C20.465,31.902,20.721,32,20.977,32
		s0.512-0.098,0.707-0.293l3-3c0.391-0.391,0.391-1.023,0-1.414S23.66,26.902,23.27,27.293z"/>
	<path style="fill:#FFFFFF;" d="M19.687,27.29c-0.38-0.37-1.05-0.37-1.42,0c-0.18,0.189-0.29,0.45-0.29,0.71s0.11,0.52,0.29,0.71
		c0.19,0.18,0.45,0.29,0.71,0.29c0.26,0,0.52-0.11,0.71-0.29c0.18-0.19,0.29-0.45,0.29-0.71
		C19.977,27.729,19.866,27.479,19.687,27.29z"/>
	<path style="fill:#FFFFFF;" d="M16.27,29.293l-1,1c-0.391,0.391-0.391,1.023,0,1.414C15.465,31.902,15.721,32,15.977,32
		s0.512-0.098,0.707-0.293l1-1c0.391-0.391,0.391-1.023,0-1.414S16.66,28.902,16.27,29.293z"/>
</g>
<circle style="fill:#7F8C8D;" cx="26.977" cy="40" r="5"/>
<path style="fill:#38454F;" d="M48.335,38.182c-0.397,0.586-0.825,1.154-1.278,1.704c0.13,0.091,0.275,0.162,0.443,0.182
	c4.262,0.512,7.477,4.137,7.477,8.432c0,4.395-3.293,8.03-7.662,8.458c-0.549,0.054-0.951,0.543-0.897,1.093
	c0.05,0.517,0.485,0.902,0.994,0.902c0.032,0,0.065-0.002,0.099-0.005c5.396-0.528,9.466-5.021,9.466-10.448
	C56.977,43.397,53.3,39.07,48.335,38.182z"/>
<path style="fill:#556080;" d="M41.961,44.548h-0.073C37.722,47.343,32.561,49,26.977,49c-5.565,0-10.71-1.647-14.868-4.425
	l-5.828,5.471c-2.342,2.199-2.182,6.031,0.419,7.917c0.017,0.012,0.033,0.024,0.05,0.036h40.6c0.017-0.012,0.033-0.024,0.05-0.036
	c2.601-1.886,2.761-5.718,0.419-7.917L41.961,44.548z"/>
<path style="fill:#7F8C8D;" d="M47.652,48.595c-0.258-0.488-0.861-0.676-1.351-0.419c-1.67,0.88-3.396,1.632-5.154,2.277
	l-2.744-4.117l-1.664,1.109l2.453,3.68c-1.462,0.456-2.946,0.827-4.441,1.118l-1.643-4.109l-1.857,0.742l1.48,3.701
	C30.843,52.847,28.945,53,27.049,53c-1.941,0-3.885-0.161-5.817-0.445l1.481-3.705l-1.857-0.742l-1.642,4.106
	c-1.491-0.295-2.972-0.664-4.43-1.123l2.463-3.694l-1.664-1.109l-2.75,4.124c-1.718-0.636-3.403-1.375-5.036-2.236
	c-0.49-0.257-1.093-0.069-1.351,0.419c-0.257,0.488-0.07,1.093,0.418,1.351C13.14,53.252,20.119,55,27.049,55
	s13.91-1.748,20.184-5.055C47.722,49.688,47.909,49.083,47.652,48.595z"/>
<rect x="25.977" y="45" style="fill:#38454F;" width="2" height="9"/>
<g>
</g>
<g>
</g>
<g>
</g>
<g>
</g>
<g>
</g>
<g>
</g>
<g>
</g>
<g>
</g>
<g>
</g>
<g>
</g>
<g>
</g>
<g>
</g>
<g>
</g>
<g>
</g>
<g>
</g>
</svg>
