<?xml version="1.0" encoding="iso-8859-1"?>
<!-- Generator: Adobe Illustrator 19.0.0, SVG Export Plug-In . SVG Version: 6.00 Build 0)  -->
<svg version="1.1" id="Capa_1" xmlns="http://www.w3.org/2000/svg" xmlns:xlink="http://www.w3.org/1999/xlink" x="0px" y="0px"
	 viewBox="0 0 58 58" style="enable-background:new 0 0 58 58;" xml:space="preserve">
<path style="fill:#38454F;" d="M13.702,58h30.595c3.602,0,7.116-1.383,9.587-4.004c0.014-0.015,0.028-0.03,0.042-0.045
	l-10.016-9.403C39.746,47.343,34.584,49,29,49s-10.746-1.657-14.912-4.452L4.073,53.951c0.014,0.015,0.028,0.03,0.042,0.045
	C6.586,56.617,10.1,58,13.702,58z"/>
<path style="fill:#BDC3C7;stroke:#ECF0F1;stroke-width:2;stroke-miterlimit:10;" d="M29,49C15.215,49,4,38.906,4,26.5S15.215,4,29,4
	s25,10.094,25,22.5S42.785,49,29,49z"/>
<path style="fill:#E6E6E6;" d="M29,42c-9.925,0-18-6.953-18-15.5S19.075,11,29,11s18,6.953,18,15.5S38.925,42,29,42z"/>
<path style="fill:#84B5CB;" d="M29,35c-5.962,0-11-3.893-11-8.5S23.038,18,29,18s11,3.893,11,8.5S34.962,35,29,35z"/>
<path style="fill:#ECF0F1;" d="M29,4c2.798,0,5.486,0.422,8,1.188V2.336C37,1.046,35.954,0,34.664,0H22.336
	C21.046,0,20,1.046,20,2.336v3.179C22.795,4.54,25.828,4,29,4z"/>
<path style="fill:#ECF0F1;" d="M52.142,18C53.336,20.624,54,23.493,54,26.5s-0.664,5.876-1.858,8.5h3.523
	C56.954,35,58,33.954,58,32.664V20.336C58,19.046,56.954,18,55.664,18H52.142z"/>
<path style="fill:#ECF0F1;" d="M4,26.5c0-3.007,0.664-5.876,1.858-8.5H2.336C1.046,18,0,19.046,0,20.336v12.329
	C0,33.954,1.046,35,2.336,35h3.523C4.664,32.376,4,29.507,4,26.5z"/>
<circle style="fill:#7F8C8D;" cx="29" cy="14" r="1"/>
<circle style="fill:#7F8C8D;" cx="29" cy="39" r="1"/>
<circle style="fill:#7F8C8D;" cx="14" cy="27" r="1"/>
<circle style="fill:#7F8C8D;" cx="44" cy="27" r="1"/>
<circle style="fill:#7F8C8D;" cx="19.101" cy="17.101" r="1"/>
<circle style="fill:#7F8C8D;" cx="38" cy="36" r="1"/>
<circle style="fill:#7F8C8D;" cx="19.101" cy="36" r="1"/>
<circle style="fill:#7F8C8D;" cx="38" cy="17.101" r="1"/>
<path style="fill:#ECF0F1;" d="M36,20.004c-0.615-0.399-1.287-0.744-2-1.034V25h-4v-6.959C29.67,18.016,29.337,18,29,18
	s-0.67,0.016-1,0.041V25h-4v-6.03c-0.713,0.29-1.385,0.635-2,1.034V25h-3.81C18.071,25.489,18,25.989,18,26.5
	c0,0.168,0.021,0.334,0.034,0.5H22v5.996c0.615,0.399,1.287,0.744,2,1.034V27h4v7.959C28.33,34.984,28.663,35,29,35
	s0.67-0.016,1-0.041V27h4v7.03c0.713-0.29,1.385-0.635,2-1.034V27h3.966C39.979,26.834,40,26.668,40,26.5
	c0-0.511-0.071-1.011-0.19-1.5H36V20.004z"/>
<g>
</g>
<g>
</g>
<g>
</g>
<g>
</g>
<g>
</g>
<g>
</g>
<g>
</g>
<g>
</g>
<g>
</g>
<g>
</g>
<g>
</g>
<g>
</g>
<g>
</g>
<g>
</g>
<g>
</g>
</svg>
