<?xml version="1.0" encoding="iso-8859-1"?>
<!-- Generator: Adobe Illustrator 19.0.0, SVG Export Plug-In . SVG Version: 6.00 Build 0)  -->
<svg version="1.1" id="Capa_1" xmlns="http://www.w3.org/2000/svg" xmlns:xlink="http://www.w3.org/1999/xlink" x="0px" y="0px"
	 viewBox="0 0 59 59" style="enable-background:new 0 0 59 59;" xml:space="preserve">
<path style="fill:none;stroke:#67B9CC;stroke-width:2;stroke-miterlimit:10;" d="M16.545,19v-4.909C16.545,6.872,22.418,1,29.636,1
	c7.118,0,12.909,5.791,12.909,12.909V19"/>
<path style="fill:#F4E6CE;" d="M56.566,19H39.5c0,5.497-4.503,9.952-10,9.952s-10-4.456-10-9.952H2.434
	c-0.611,0-1.073,0.554-0.964,1.155l6.32,36.655C8.065,58.087,9.194,59,10.5,59h38c1.306,0,2.435-0.913,2.709-2.19l6.32-36.655
	C57.639,19.554,57.177,19,56.566,19z"/>
<polygon style="fill:#F29C1F;" points="4.765,39 54.325,39 56.049,29 3.041,29 "/>
<path style="fill:#F29C1F;" d="M51.254,56.81L52.601,49H6.49l1.347,7.81C8.11,58.087,9.239,59,10.545,59h38
	C49.852,59,50.981,58.087,51.254,56.81z"/>
<g>
</g>
<g>
</g>
<g>
</g>
<g>
</g>
<g>
</g>
<g>
</g>
<g>
</g>
<g>
</g>
<g>
</g>
<g>
</g>
<g>
</g>
<g>
</g>
<g>
</g>
<g>
</g>
<g>
</g>
</svg>
