<?xml version="1.0" encoding="iso-8859-1"?>
<!-- Generator: Adobe Illustrator 19.0.0, SVG Export Plug-In . SVG Version: 6.00 Build 0)  -->
<svg version="1.1" id="Capa_1" xmlns="http://www.w3.org/2000/svg" xmlns:xlink="http://www.w3.org/1999/xlink" x="0px" y="0px"
	 viewBox="0 0 59 59" style="enable-background:new 0 0 59 59;" xml:space="preserve">
<path style="fill:none;stroke:#7F8C8D;stroke-width:2;stroke-miterlimit:10;" d="M16.5,21v-6.909C16.5,6.872,22.373,1,29.591,1
	C36.709,1,42.5,6.791,42.5,13.909V21"/>
<path style="fill:#26B99A;" d="M56.566,21H39.5c0,5.497-4.503,9.952-10,9.952s-10-4.456-10-9.952H2.434
	c-0.611,0-1.073,0.554-0.964,1.155l6.32,34.655C8.065,58.087,9.194,59,10.5,59h38c1.306,0,2.435-0.913,2.709-2.19l6.32-34.655
	C57.639,21.554,57.177,21,56.566,21z"/>
<circle style="fill:none;stroke:#EDE71B;stroke-width:2;stroke-linecap:round;stroke-linejoin:round;stroke-miterlimit:10;" cx="29.5" cy="45" r="7"/>
<line style="fill:none;stroke:#EDE71B;stroke-width:2;stroke-linecap:round;stroke-linejoin:round;stroke-miterlimit:10;" x1="29.5" y1="38" x2="29.5" y2="35"/>
<line style="fill:none;stroke:#EDE71B;stroke-width:2;stroke-linecap:round;stroke-linejoin:round;stroke-miterlimit:10;" x1="29.5" y1="55" x2="29.5" y2="52"/>
<line style="fill:none;stroke:#EDE71B;stroke-width:2;stroke-linecap:round;stroke-linejoin:round;stroke-miterlimit:10;" x1="36.5" y1="45" x2="39.5" y2="45"/>
<line style="fill:none;stroke:#EDE71B;stroke-width:2;stroke-linecap:round;stroke-linejoin:round;stroke-miterlimit:10;" x1="19.5" y1="45" x2="22.5" y2="45"/>
<line style="fill:none;stroke:#EDE71B;stroke-width:2;stroke-linecap:round;stroke-linejoin:round;stroke-miterlimit:10;" x1="24.55" y1="40.05" x2="22.429" y2="37.929"/>
<line style="fill:none;stroke:#EDE71B;stroke-width:2;stroke-linecap:round;stroke-linejoin:round;stroke-miterlimit:10;" x1="36.571" y1="52.071" x2="34.45" y2="49.95"/>
<line style="fill:none;stroke:#EDE71B;stroke-width:2;stroke-linecap:round;stroke-linejoin:round;stroke-miterlimit:10;" x1="34.45" y1="40.05" x2="36.571" y2="37.929"/>
<line style="fill:none;stroke:#EDE71B;stroke-width:2;stroke-linecap:round;stroke-linejoin:round;stroke-miterlimit:10;" x1="22.429" y1="52.071" x2="24.55" y2="49.95"/>
<circle style="fill:none;stroke:#ECF0F1;stroke-width:2;stroke-miterlimit:10;" cx="14" cy="27.5" r="2.5"/>
<circle style="fill:none;stroke:#ECF0F1;stroke-width:2;stroke-miterlimit:10;" cx="45" cy="27.5" r="2.5"/>
<g>
</g>
<g>
</g>
<g>
</g>
<g>
</g>
<g>
</g>
<g>
</g>
<g>
</g>
<g>
</g>
<g>
</g>
<g>
</g>
<g>
</g>
<g>
</g>
<g>
</g>
<g>
</g>
<g>
</g>
</svg>
