<?xml version="1.0" encoding="iso-8859-1"?>
<!-- Generator: Adobe Illustrator 19.0.0, SVG Export Plug-In . SVG Version: 6.00 Build 0)  -->
<svg version="1.1" id="Capa_1" xmlns="http://www.w3.org/2000/svg" xmlns:xlink="http://www.w3.org/1999/xlink" x="0px" y="0px"
	 viewBox="0 0 60 60" style="enable-background:new 0 0 60 60;" xml:space="preserve">
<rect x="6" y="53.5" style="fill:#F4E6CE;" width="48" height="6"/>
<circle style="fill:#FBD490;" cx="12" cy="55.5" r="1"/>
<circle style="fill:#FBD490;" cx="18" cy="55.5" r="1"/>
<circle style="fill:#FBD490;" cx="15" cy="58.5" r="1"/>
<circle style="fill:#FBD490;" cx="21" cy="58.5" r="1"/>
<circle style="fill:#FBD490;" cx="24" cy="55.5" r="1"/>
<circle style="fill:#FBD490;" cx="30" cy="55.5" r="1"/>
<circle style="fill:#FBD490;" cx="27" cy="58.5" r="1"/>
<circle style="fill:#FBD490;" cx="33" cy="58.5" r="1"/>
<circle style="fill:#FBD490;" cx="36" cy="55.5" r="1"/>
<circle style="fill:#FBD490;" cx="42" cy="55.5" r="1"/>
<circle style="fill:#FBD490;" cx="39" cy="58.5" r="1"/>
<circle style="fill:#FBD490;" cx="45" cy="58.5" r="1"/>
<circle style="fill:#FBD490;" cx="48" cy="55.5" r="1"/>
<g>
	<path style="fill:#F29C1F;" d="M19,14.5c-2.757,0-5-2.243-5-5s2.243-5,5-5s5,2.243,5,5S21.757,14.5,19,14.5z"/>
	<path style="fill:#F0C419;" d="M19,15.5c-3.309,0-6-2.691-6-6s2.691-6,6-6s6,2.691,6,6S22.309,15.5,19,15.5z M19,5.5
		c-2.206,0-4,1.794-4,4s1.794,4,4,4s4-1.794,4-4S21.206,5.5,19,5.5z"/>
</g>
<path style="fill:#F0C419;" d="M19,18.5c-0.553,0-1-0.447-1-1v-3c0-0.553,0.447-1,1-1s1,0.447,1,1v3C20,18.053,19.553,18.5,19,18.5z
	"/>
<path style="fill:#F0C419;" d="M19,5.5c-0.553,0-1-0.447-1-1v-3c0-0.553,0.447-1,1-1s1,0.447,1,1v3C20,5.053,19.553,5.5,19,5.5z"/>
<path style="fill:#F0C419;" d="M27,10.5h-3c-0.553,0-1-0.447-1-1s0.447-1,1-1h3c0.553,0,1,0.447,1,1S27.553,10.5,27,10.5z"/>
<path style="fill:#F0C419;" d="M14,10.5h-3c-0.553,0-1-0.447-1-1s0.447-1,1-1h3c0.553,0,1,0.447,1,1S14.553,10.5,14,10.5z"/>
<path style="fill:#F0C419;" d="M24.657,16.157c-0.256,0-0.512-0.098-0.707-0.293l-2.122-2.122c-0.391-0.391-0.391-1.023,0-1.414
	c0.391-0.391,1.023-0.391,1.414,0l2.122,2.122c0.391,0.391,0.391,1.023,0,1.414C25.169,16.06,24.913,16.157,24.657,16.157z"/>
<path style="fill:#F0C419;" d="M15.465,6.965c-0.256,0-0.512-0.098-0.707-0.293L12.636,4.55c-0.391-0.391-0.391-1.023,0-1.414
	s1.023-0.391,1.414,0l2.122,2.122c0.391,0.391,0.391,1.023,0,1.414C15.977,6.867,15.721,6.965,15.465,6.965z"/>
<path style="fill:#F0C419;" d="M22.535,6.965c-0.256,0-0.512-0.098-0.707-0.293c-0.391-0.391-0.391-1.023,0-1.414l2.122-2.122
	c0.391-0.391,1.023-0.391,1.414,0s0.391,1.023,0,1.414l-2.122,2.122C23.047,6.867,22.791,6.965,22.535,6.965z"/>
<path style="fill:#F0C419;" d="M13.343,16.157c-0.256,0-0.512-0.098-0.707-0.293c-0.391-0.391-0.391-1.023,0-1.414l2.122-2.122
	c0.391-0.391,1.023-0.391,1.414,0c0.391,0.391,0.391,1.023,0,1.414l-2.122,2.122C13.854,16.06,13.599,16.157,13.343,16.157z"/>
<rect x="1" y="54.5" style="fill:#F4E6CE;stroke:#95A5A5;stroke-width:2;stroke-miterlimit:10;" width="4" height="4"/>
<rect x="6" y="23.5" style="fill:none;stroke:#BDC3C7;stroke-width:2;stroke-miterlimit:10;" width="48" height="16"/>
<rect x="6" y="23.5" style="fill:none;stroke:#BDC3C7;stroke-width:2;stroke-miterlimit:10;" width="8" height="8"/>
<rect x="6" y="31.5" style="fill:none;stroke:#BDC3C7;stroke-width:2;stroke-miterlimit:10;" width="8" height="8"/>
<rect x="14" y="23.5" style="fill:none;stroke:#BDC3C7;stroke-width:2;stroke-miterlimit:10;" width="8" height="8"/>
<rect x="14" y="31.5" style="fill:none;stroke:#BDC3C7;stroke-width:2;stroke-miterlimit:10;" width="8" height="8"/>
<rect x="22" y="23.5" style="fill:none;stroke:#BDC3C7;stroke-width:2;stroke-miterlimit:10;" width="8" height="8"/>
<rect x="22" y="31.5" style="fill:none;stroke:#BDC3C7;stroke-width:2;stroke-miterlimit:10;" width="8" height="8"/>
<rect x="30" y="23.5" style="fill:none;stroke:#BDC3C7;stroke-width:2;stroke-miterlimit:10;" width="8" height="8"/>
<rect x="30" y="31.5" style="fill:none;stroke:#BDC3C7;stroke-width:2;stroke-miterlimit:10;" width="8" height="8"/>
<rect x="38" y="23.5" style="fill:none;stroke:#BDC3C7;stroke-width:2;stroke-miterlimit:10;" width="8" height="8"/>
<rect x="38" y="31.5" style="fill:none;stroke:#BDC3C7;stroke-width:2;stroke-miterlimit:10;" width="8" height="8"/>
<rect x="46" y="23.5" style="fill:none;stroke:#BDC3C7;stroke-width:2;stroke-miterlimit:10;" width="8" height="8"/>
<rect x="46" y="31.5" style="fill:none;stroke:#BDC3C7;stroke-width:2;stroke-miterlimit:10;" width="8" height="8"/>
<line style="fill:none;stroke:#95A5A5;stroke-width:2;stroke-miterlimit:10;" x1="3" y1="54.5" x2="3" y2="19.5"/>
<rect x="55" y="54.5" style="fill:#F4E6CE;stroke:#95A5A5;stroke-width:2;stroke-miterlimit:10;" width="4" height="4"/>
<line style="fill:none;stroke:#95A5A5;stroke-width:2;stroke-miterlimit:10;" x1="57" y1="54.5" x2="57" y2="19.5"/>
<line style="fill:none;stroke:#BDC3C7;stroke-width:2;stroke-miterlimit:10;" x1="3" y1="25.5" x2="6" y2="25.5"/>
<line style="fill:none;stroke:#BDC3C7;stroke-width:2;stroke-miterlimit:10;" x1="3" y1="37.5" x2="6" y2="37.5"/>
<line style="fill:none;stroke:#BDC3C7;stroke-width:2;stroke-miterlimit:10;" x1="54" y1="25.5" x2="57" y2="25.5"/>
<line style="fill:none;stroke:#BDC3C7;stroke-width:2;stroke-miterlimit:10;" x1="54" y1="37.5" x2="57" y2="37.5"/>
<g>
</g>
<g>
</g>
<g>
</g>
<g>
</g>
<g>
</g>
<g>
</g>
<g>
</g>
<g>
</g>
<g>
</g>
<g>
</g>
<g>
</g>
<g>
</g>
<g>
</g>
<g>
</g>
<g>
</g>
</svg>
