<?xml version="1.0" encoding="iso-8859-1"?>
<!-- Generator: Adobe Illustrator 19.0.0, SVG Export Plug-In . SVG Version: 6.00 Build 0)  -->
<svg version="1.1" id="Capa_1" xmlns="http://www.w3.org/2000/svg" xmlns:xlink="http://www.w3.org/1999/xlink" x="0px" y="0px"
	 viewBox="0 0 59 59" style="enable-background:new 0 0 59 59;" xml:space="preserve">
<path style="fill:#CB8252;" d="M44.5,35h-29V21.656c0-0.363,0.294-0.656,0.656-0.656h27.687c0.363,0,0.656,0.294,0.656,0.656V35z"/>
<line style="fill:none;stroke:#805333;stroke-width:2;stroke-miterlimit:10;" x1="15.5" y1="28" x2="21.5" y2="28"/>
<line style="fill:none;stroke:#805333;stroke-width:2;stroke-miterlimit:10;" x1="37.5" y1="28" x2="44.5" y2="28"/>
<rect x="21.5" y="26" style="fill:none;stroke:#805333;stroke-width:2;stroke-miterlimit:10;" width="17" height="4"/>
<circle style="fill:#ECF0F1;" cx="11.5" cy="54" r="5"/>
<circle style="fill:#ECF0F1;" cx="47.5" cy="54" r="5"/>
<circle style="fill:#7F8C8D;" cx="47.5" cy="54" r="1"/>
<circle style="fill:#7F8C8D;" cx="11.5" cy="54" r="1"/>
<path style="fill:none;stroke:#546A79;stroke-width:2;stroke-miterlimit:10;" d="M22.5,3h-1.626C11.831,3,4.5,10.331,4.5,19.374V49"
	/>
<path style="fill:none;stroke:#546A79;stroke-width:2;stroke-miterlimit:10;" d="M54.5,49V19.374C54.5,10.331,47.169,3,38.126,3
	H36.5"/>
<g>
	<path style="fill:#CBB292;" d="M2.5,53h4.101c0.463-2.282,2.48-4,4.899-4h-9V53z"/>
	<g>
		<path style="fill:#CBB292;" d="M16.399,53h26.202c0.463-2.282,2.48-4,4.899-4h-36C13.919,49,15.936,50.718,16.399,53z"/>
		<path style="fill:#CBB292;" d="M47.5,49c2.419,0,4.436,1.718,4.899,4H56.5v-4H47.5z"/>
	</g>
</g>
<path style="fill:#7F8C8D;" d="M49.5,49h-39V35.656c0-0.363,0.294-0.656,0.656-0.656h37.687c0.363,0,0.656,0.294,0.656,0.656V49z"/>
<line style="fill:none;stroke:#BDC3C7;stroke-width:2;stroke-miterlimit:10;" x1="10.5" y1="42" x2="21.5" y2="42"/>
<line style="fill:none;stroke:#BDC3C7;stroke-width:2;stroke-miterlimit:10;" x1="37.5" y1="42" x2="49.5" y2="42"/>
<rect x="21.5" y="40" style="fill:none;stroke:#BDC3C7;stroke-width:2;stroke-miterlimit:10;" width="17" height="4"/>
<rect x="22.5" y="1" style="fill:none;stroke:#546A79;stroke-width:2;stroke-miterlimit:10;" width="14" height="4"/>
<g>
</g>
<g>
</g>
<g>
</g>
<g>
</g>
<g>
</g>
<g>
</g>
<g>
</g>
<g>
</g>
<g>
</g>
<g>
</g>
<g>
</g>
<g>
</g>
<g>
</g>
<g>
</g>
<g>
</g>
</svg>
