<?xml version="1.0" encoding="iso-8859-1"?>
<!-- Generator: Adobe Illustrator 19.0.0, SVG Export Plug-In . SVG Version: 6.00 Build 0)  -->
<svg version="1.1" id="Capa_1" xmlns="http://www.w3.org/2000/svg" xmlns:xlink="http://www.w3.org/1999/xlink" x="0px" y="0px"
	 viewBox="0 0 58 58" style="enable-background:new 0 0 58 58;" xml:space="preserve">
<path style="fill:#E6E6E6;" d="M54.502,45.5H3.498C1.566,45.5,0,43.934,0,42.002V4.998C0,3.066,1.566,1.5,3.498,1.5h51.003
	C56.434,1.5,58,3.066,58,4.998v37.003C58,43.934,56.434,45.5,54.502,45.5z"/>
<path style="fill:#E6E6E6;" d="M39.774,53.5H18.226c-0.224,0-0.311-0.307-0.124-0.437l1.805-1.273c1.947-1.373,2.868-3.891,2.3-6.29
	v0h13.588l0,0.002c-0.568,2.4,0.354,4.917,2.302,6.29l1.803,1.271C40.085,53.194,39.997,53.5,39.774,53.5z"/>
<path style="fill:#ECF0F1;" d="M40.5,56.5h-23c-0.825,0-1.5-0.675-1.5-1.5l0,0c0-0.825,0.675-1.5,1.5-1.5h23
	c0.825,0,1.5,0.675,1.5,1.5l0,0C42,55.825,41.325,56.5,40.5,56.5z"/>
<rect x="4" y="5.5" style="fill:#FFFFFF;" width="50" height="27"/>
<g>
	<path style="fill:#F29C1F;" d="M21,14.5h-1.09c-0.154-0.909-0.51-1.749-1.025-2.471l0.772-0.772c0.391-0.391,0.391-1.023,0-1.414
		s-1.023-0.391-1.414,0l-0.772,0.772C16.749,10.1,15.909,9.744,15,9.59V8.5c0-0.552-0.448-1-1-1s-1,0.448-1,1v1.09
		c-0.909,0.154-1.749,0.51-2.471,1.025L9.757,9.843c-0.391-0.391-1.023-0.391-1.414,0s-0.391,1.023,0,1.414l0.772,0.772
		C8.6,12.751,8.244,13.591,8.09,14.5H7c-0.552,0-1,0.448-1,1s0.448,1,1,1h1.09c0.154,0.909,0.51,1.749,1.025,2.471l-0.772,0.772
		c-0.391,0.391-0.391,1.023,0,1.414c0.195,0.195,0.451,0.293,0.707,0.293s0.512-0.098,0.707-0.293l0.772-0.772
		C11.251,20.9,12.091,21.256,13,21.41v1.09c0,0.552,0.448,1,1,1s1-0.448,1-1v-1.09c0.909-0.154,1.749-0.51,2.471-1.025l0.772,0.772
		c0.195,0.195,0.451,0.293,0.707,0.293s0.512-0.098,0.707-0.293c0.391-0.391,0.391-1.023,0-1.414l-0.772-0.772
		c0.515-0.722,0.871-1.562,1.025-2.471H21c0.552,0,1-0.448,1-1S21.552,14.5,21,14.5z M14,19.5c-2.206,0-4-1.794-4-4s1.794-4,4-4
		s4,1.794,4,4S16.206,19.5,14,19.5z"/>
	<path style="fill:#F29C1F;" d="M18,25.5c0-0.552-0.448-1-1-1H8c-0.552,0-1,0.448-1,1s0.448,1,1,1h9C17.552,26.5,18,26.052,18,25.5z
		"/>
	<path style="fill:#F29C1F;" d="M20,27.5h-8c-0.552,0-1,0.448-1,1s0.448,1,1,1h8c0.552,0,1-0.448,1-1S20.552,27.5,20,27.5z"/>
</g>
<path style="fill:#CFD1D3;" d="M0,36.5v5.502C0,43.934,1.566,45.5,3.498,45.5h51.003c1.932,0,3.498-1.566,3.498-3.498V36.5H0z"/>
<rect x="25" y="5.5" style="fill:#D0E8F9;" width="29" height="27"/>
<path style="fill:#4482C3;" d="M48,29.5h-2c-0.552,0-1-0.448-1-1s0.448-1,1-1h2c0.552,0,1,0.448,1,1S48.552,29.5,48,29.5z M41,29.5
	h-3c-0.552,0-1-0.448-1-1s0.448-1,1-1h3c0.552,0,1,0.448,1,1S41.552,29.5,41,29.5z M33,29.5h-3c-0.552,0-1-0.448-1-1s0.448-1,1-1h3
	c0.552,0,1,0.448,1,1S33.552,29.5,33,29.5z"/>
<path style="fill:#F0C419;" d="M49.756,10.845c-0.362-0.417-0.993-0.463-1.411-0.101l-4.336,3.758c-0.003,0-0.006-0.002-0.009-0.002
	h-9c-0.552,0-1,0.448-1,1s0.448,1,1,1h6.704l-7.749,6.716L30.6,20.7c-0.443-0.332-1.069-0.241-1.4,0.2
	c-0.332,0.442-0.242,1.069,0.2,1.4l4,3c0.041,0.031,0.088,0.045,0.131,0.069c0.035,0.019,0.067,0.039,0.103,0.054
	c0.118,0.047,0.241,0.078,0.365,0.078c0,0,0,0,0.001,0l0.001,0c0.136,0,0.268-0.036,0.396-0.092
	c0.039-0.017,0.072-0.042,0.109-0.064c0.05-0.03,0.104-0.049,0.149-0.088L43,18.023V23.5c0,0.552,0.448,1,1,1s1-0.448,1-1v-7.21
	l4.655-4.034C50.072,11.894,50.117,11.262,49.756,10.845z"/>
<g>
</g>
<g>
</g>
<g>
</g>
<g>
</g>
<g>
</g>
<g>
</g>
<g>
</g>
<g>
</g>
<g>
</g>
<g>
</g>
<g>
</g>
<g>
</g>
<g>
</g>
<g>
</g>
<g>
</g>
</svg>
