<?xml version="1.0" encoding="iso-8859-1"?>
<!-- Generator: Adobe Illustrator 19.0.0, SVG Export Plug-In . SVG Version: 6.00 Build 0)  -->
<svg version="1.1" id="Capa_1" xmlns="http://www.w3.org/2000/svg" xmlns:xlink="http://www.w3.org/1999/xlink" x="0px" y="0px"
	 viewBox="0 0 59 59" style="enable-background:new 0 0 59 59;" xml:space="preserve">
<path style="fill:#546A79;" d="M54.963,0H23.037C20.807,0,19,1.771,19,4v54h5V5h30v53h5V4C59,1.771,57.193,0,54.963,0z"/>
<rect x="1" y="30" style="fill:#FFFFFF;stroke:#7F8C8D;stroke-width:2;stroke-linecap:round;stroke-miterlimit:10;" width="18" height="28"/>
<path style="fill:#24AE5F;stroke:#41767F;stroke-width:2;stroke-linecap:round;stroke-miterlimit:10;" d="M13.241,30h-8
	l-2.726-8.179C2.38,21.417,2.681,21,3.106,21h12.269c0.426,0,0.726,0.417,0.592,0.821L13.241,30z"/>
<line style="fill:none;stroke:#41767F;stroke-width:2;stroke-linecap:round;stroke-miterlimit:10;" x1="3.106" y1="21" x2="7.241" y2="14"/>
<line style="fill:none;stroke:#41767F;stroke-width:2;stroke-linecap:round;stroke-miterlimit:10;" x1="15.241" y1="21" x2="11.241" y2="14"/>
<path style="fill:#BDC3C7;" d="M45,30v19v0.217c0,1.843-0.297,3.674-0.88,5.423l-0.599,1.797C43.21,57.37,42.336,58,41.352,58
	h-4.704c-0.984,0-1.858-0.63-2.169-1.563L33.88,54.64C33.297,52.891,33,51.06,33,49.217V49V30"/>
<line style="fill:#BDC3C7;" x1="39" y1="58" x2="39" y2="40"/>
<path style="fill:#BDC3C7;" d="M45,42c4.625,0,5-7.125,5-14c0-4.585-4.692-6.803-8.457-7.694c-0.061-0.015-0.073-0.088-0.022-0.124
	C43.004,19.141,44,17.21,44,15c0-3.314-2.239-6-5-6s-5,2.686-5,6c0,2.21,0.996,4.141,2.479,5.182c0.052,0.036,0.04,0.11-0.022,0.124
	C32.692,21.197,28,23.415,28,28c0,6.875,0.375,14,5,14"/>
<rect x="1" y="30" style="fill:#7F8C8D;" width="18" height="11"/>
<path style="fill:#BDC3C7;" d="M15,57V45c0-0.552-0.447-1-1-1s-1,0.448-1,1v12H15z"/>
<path style="fill:#BDC3C7;" d="M11,57V45c0-0.552-0.447-1-1-1s-1,0.448-1,1v12H11z"/>
<path style="fill:#BDC3C7;" d="M7,57V45c0-0.552-0.447-1-1-1s-1,0.448-1,1v12H7z"/>
<g>
</g>
<g>
</g>
<g>
</g>
<g>
</g>
<g>
</g>
<g>
</g>
<g>
</g>
<g>
</g>
<g>
</g>
<g>
</g>
<g>
</g>
<g>
</g>
<g>
</g>
<g>
</g>
<g>
</g>
</svg>
