<?xml version="1.0" encoding="iso-8859-1"?>
<!-- Generator: Adobe Illustrator 19.0.0, SVG Export Plug-In . SVG Version: 6.00 Build 0)  -->
<svg version="1.1" id="Capa_1" xmlns="http://www.w3.org/2000/svg" xmlns:xlink="http://www.w3.org/1999/xlink" x="0px" y="0px"
	 viewBox="0 0 59 59" style="enable-background:new 0 0 59 59;" xml:space="preserve">
<path style="fill:#7F6E5D;" d="M49.001,22.865l-0.036,0C48.596,28.493,39.811,33,29,33S9.404,28.493,9.035,22.865l-0.036,0
	C7.716,26.102,7,29.704,7,33.5C7,47.583,16.85,59,29,59s22-11.417,22-25.5C51,29.704,50.284,26.102,49.001,22.865z"/>
<path style="fill:none;stroke:#CBB292;stroke-width:2;stroke-linecap:round;stroke-miterlimit:10;" d="M14,38
	c0,7.738,6.262,14,14,14"/>
<path style="fill:#CBB292;" d="M36.281,14.659C34.023,14.239,31.572,14,29,14c-11.046,0-20,4.253-20,9.5S17.954,33,29,33
	s20-4.253,20-9.5c0-3.249-3.439-6.115-8.677-7.828"/>
<circle style="fill:#070707;stroke:#0096E6;stroke-miterlimit:10;" cx="19" cy="23" r="1"/>
<path style="fill:#F4E6CE;" d="M34.121,18.345C32.569,18.13,30.865,18,29,18c-10.393,0-16,3.904-16,5.5S18.607,29,29,29
	s16-3.904,16-5.5c0-1.027-2.332-3.004-6.753-4.287L34.121,18.345z"/>
<circle style="fill:#CBB292;" cx="23" cy="23" r="1"/>
<circle style="fill:#CBB292;" cx="26" cy="25" r="1"/>
<circle style="fill:#CBB292;" cx="27" cy="21" r="1"/>
<line style="fill:none;stroke:#7F6E5D;stroke-width:2;stroke-linecap:round;stroke-linejoin:round;stroke-miterlimit:10;" x1="12.646" y1="10.418" x2="19" y2="23"/>
<path style="fill:#A4E869;" d="M32.973,26.254c-0.33,0-0.665-0.082-0.973-0.254c-0.964-0.539-1.31-1.757-0.771-2.721l10.996-18.76
	c0.819-1.411,2.188-2.323,3.773-2.529c1.582-0.211,3.142,0.322,4.272,1.453l6.143,6.143c0.781,0.781,0.781,2.047,0,2.828
	c-0.78,0.781-2.048,0.781-2.828,0l-6.143-6.143c-0.336-0.335-0.722-0.344-0.927-0.315c-0.202,0.026-0.577,0.132-0.815,0.542
	L34.721,25.229C34.355,25.885,33.674,26.254,32.973,26.254z"/>
<path style="fill:#F0C419;stroke:#F0C419;stroke-width:2;stroke-linecap:round;stroke-linejoin:round;stroke-miterlimit:10;" d="
	M4.274,15.252c-0.552-0.957,0.193-2.421,1.309-3.065s2.468-0.391,3.021,0.565c-0.552-0.957-0.095-2.254,1.021-2.899
	c1.116-0.644,2.468-0.391,3.021,0.565c-0.552-0.957-0.095-2.254,1.021-2.899s2.468-0.391,3.021,0.565
	c-0.552-0.957-0.095-2.254,1.021-2.899s2.468-0.391,3.021,0.565c-2.623-4.544-8.433-6.101-12.977-3.477S1.651,10.708,4.274,15.252z"
	/>
<g>
</g>
<g>
</g>
<g>
</g>
<g>
</g>
<g>
</g>
<g>
</g>
<g>
</g>
<g>
</g>
<g>
</g>
<g>
</g>
<g>
</g>
<g>
</g>
<g>
</g>
<g>
</g>
<g>
</g>
</svg>
