<?xml version="1.0" encoding="iso-8859-1"?>
<!-- Generator: Adobe Illustrator 19.0.0, SVG Export Plug-In . SVG Version: 6.00 Build 0)  -->
<svg version="1.1" id="Capa_1" xmlns="http://www.w3.org/2000/svg" xmlns:xlink="http://www.w3.org/1999/xlink" x="0px" y="0px"
	 viewBox="0 0 57.97 57.97" style="enable-background:new 0 0 57.97 57.97;" xml:space="preserve">
<path style="fill:#D75E72;" d="M5.22,12.723C6.958,3.251,12.446,0.748,15.871,0.127c1.906-0.346,3.912,0.01,5.489,1.134
	c6.804,4.85,4.374,17.709,4.374,17.709c-3.5,15.25-1,25-1,25l0.796,4.775c0.224,1.343,0.179,2.74-0.296,4.016
	c-1.133,3.042-4.063,5.209-7.499,5.209h-1c-4.418,0-8-3.582-8-8c0-1.906,1.165-6.156,1-9c-0.177-3.059-1.046-7.116-2.081-10
	c-1.664-4.637-2.385-7.362-2.694-10.614C4.718,17.809,4.758,15.239,5.22,12.723z"/>
<path style="fill:#ECF0F1;" d="M12.156,32.97c-0.408,0-0.791-0.252-0.939-0.658c-3.291-9.024-3.537-15.642-0.732-19.67
	c2.514-3.611,6.505-3.672,6.674-3.673c2.485,0,4.306,0.86,5.413,2.557c3.229,4.946-1.305,15.403-1.5,15.846
	c-0.222,0.506-0.813,0.735-1.317,0.513s-0.735-0.812-0.514-1.317c1.204-2.743,3.847-10.595,1.655-13.949
	c-0.725-1.109-1.945-1.649-3.732-1.649c-0.118,0.002-3.151,0.077-5.057,2.843c-1.643,2.384-2.805,7.411,0.989,17.814
	c0.189,0.519-0.078,1.093-0.597,1.282C12.386,32.95,12.27,32.97,12.156,32.97z"/>
<path style="fill:#ECF0F1;" d="M16.814,10.97c-0.553,0-1-0.448-1-1v-4c0-0.552,0.447-1,1-1s1,0.448,1,1v4
	C17.814,10.522,17.367,10.97,16.814,10.97z"/>
<path style="fill:#D75E72;" d="M52.75,12.723C51.012,3.251,45.524,0.748,42.099,0.127c-1.906-0.346-3.912,0.01-5.489,1.134
	c-6.804,4.85-4.374,17.709-4.374,17.709c3.5,15.25,1,25,1,25l-0.796,4.775c-0.224,1.343-0.179,2.74,0.296,4.016
	c1.133,3.042,4.063,5.209,7.5,5.209h1c4.418,0,8-3.582,8-8c0-1.906-1.165-6.156-1-9c0.177-3.059,1.046-7.116,2.081-10
	c1.664-4.637,2.385-7.362,2.694-10.614C53.252,17.809,53.212,15.239,52.75,12.723z"/>
<path style="fill:#ECF0F1;" d="M46.156,32.97c-0.114,0-0.229-0.02-0.343-0.061c-0.519-0.189-0.786-0.763-0.597-1.282
	c2.977-8.163,3.287-14.291,0.898-17.722c-2.01-2.887-5.279-2.936-5.313-2.936c-1.767,0-2.968,0.53-3.667,1.62
	c-2.142,3.339,0.667,11.211,1.93,13.963c0.229,0.502,0.01,1.096-0.492,1.326c-0.499,0.23-1.095,0.011-1.325-0.491
	c-0.204-0.444-4.963-10.936-1.796-15.876c1.08-1.686,2.883-2.541,5.355-2.541c0.181,0.001,4.353,0.063,6.949,3.793
	c2.816,4.045,2.594,10.623-0.661,19.55C46.948,32.718,46.564,32.97,46.156,32.97z"/>
<path style="fill:#ECF0F1;" d="M41.156,10.97c-0.553,0-1-0.448-1-1v-4c0-0.552,0.447-1,1-1s1,0.448,1,1v4
	C42.156,10.522,41.709,10.97,41.156,10.97z"/>
<g>
</g>
<g>
</g>
<g>
</g>
<g>
</g>
<g>
</g>
<g>
</g>
<g>
</g>
<g>
</g>
<g>
</g>
<g>
</g>
<g>
</g>
<g>
</g>
<g>
</g>
<g>
</g>
<g>
</g>
</svg>
