<?xml version="1.0" encoding="iso-8859-1"?>
<!-- Generator: Adobe Illustrator 19.0.0, SVG Export Plug-In . SVG Version: 6.00 Build 0)  -->
<svg version="1.1" id="Capa_1" xmlns="http://www.w3.org/2000/svg" xmlns:xlink="http://www.w3.org/1999/xlink" x="0px" y="0px"
	 viewBox="0 0 55.008 55.008" style="enable-background:new 0 0 55.008 55.008;" xml:space="preserve">
<path style="fill:#F0C419;" d="M13.873,55.008c4.765,0.005,8.631-3.856,8.631-8.622V30.998c0-3.483,0.956-8.041,1.598-10.467
	c0.261-0.987,0.402-2.001,0.402-3.022v-0.675v-3.034V6.549c0-4.384-4.226-7.529-8.425-6.269l-9.36,2.808
	c-2.868,0.86-5.215,4.015-5.215,7.009v3.703v3.034l0,0.666c0,1.001,0.126,1.994,0.384,2.961c0.641,2.407,2.616,7.02,2.616,10.537
	v15.388c0,4.758,3.854,8.616,8.612,8.622L13.873,55.008z"/>
<path style="fill:#3B97D3;" d="M23.591,22.66c-0.006-0.008-0.011-0.015-0.018-0.023l-7.069-8.64v-1c0-1.986-2.166-3.372-3.868-2.348
	c-0.675,0.406-1.132,1.079-1.132,1.841v1.507L2.84,23.45c0.554,1.672,1.146,3.582,1.451,5.405c0.201-0.109,0.393-0.236,0.555-0.417
	l9.573-10.349c0.043-0.047,0.119-0.041,0.155,0.011l7.138,10.338c0.203,0.225,0.447,0.381,0.705,0.503
	c0.067-0.007,0.125-0.018,0.189-0.026C22.786,26.784,23.185,24.512,23.591,22.66z"/>
<path style="fill:#F0C419;" d="M41.136,55.008c-4.765,0.005-8.631-3.856-8.631-8.622V30.998c0-3.483-0.956-8.041-1.598-10.467
	c-0.261-0.987-0.402-2.001-0.402-3.022v-0.675v-3.034V6.549c0-4.384,4.226-7.529,8.425-6.269l9.36,2.808
	c2.868,0.86,5.215,4.015,5.215,7.009v3.703v3.034v0.666c0,1.001-0.126,1.994-0.384,2.961c-0.641,2.407-2.616,7.02-2.616,10.537
	v15.388c0,4.758-3.854,8.616-8.612,8.622L41.136,55.008z"/>
<path style="fill:#3B97D3;" d="M31.418,22.66c0.006-0.008,0.011-0.015,0.018-0.023l7.069-8.64v-1c0-1.986,2.166-3.372,3.868-2.348
	c0.675,0.406,1.132,1.079,1.132,1.841v1.507l8.664,9.452c-0.554,1.672-1.146,3.582-1.451,5.405
	c-0.201-0.109-0.393-0.236-0.555-0.417l-9.573-10.349c-0.043-0.047-0.119-0.041-0.155,0.011l-7.138,10.338
	c-0.203,0.225-0.447,0.381-0.705,0.503c-0.067-0.007-0.125-0.018-0.189-0.026C32.222,26.784,31.824,24.512,31.418,22.66z"/>
<g>
</g>
<g>
</g>
<g>
</g>
<g>
</g>
<g>
</g>
<g>
</g>
<g>
</g>
<g>
</g>
<g>
</g>
<g>
</g>
<g>
</g>
<g>
</g>
<g>
</g>
<g>
</g>
<g>
</g>
</svg>
