<?xml version="1.0" encoding="iso-8859-1"?>
<!-- Generator: Adobe Illustrator 19.0.0, SVG Export Plug-In . SVG Version: 6.00 Build 0)  -->
<svg version="1.1" id="Capa_1" xmlns="http://www.w3.org/2000/svg" xmlns:xlink="http://www.w3.org/1999/xlink" x="0px" y="0px"
	 viewBox="0 0 58 58" style="enable-background:new 0 0 58 58;" xml:space="preserve">
<path style="fill:#556080;" d="M52.262,51.5H5.738C2.569,51.5,0,48.931,0,45.762V12.238C0,9.069,2.569,6.5,5.738,6.5h46.524
	C55.431,6.5,58,9.069,58,12.238v33.524C58,48.931,55.431,51.5,52.262,51.5z"/>
<path style="fill:#A4E869;stroke:#FFFFFF;stroke-width:2;stroke-miterlimit:10;" d="M4,38.57V13.43c0-1.618,1.312-2.93,2.93-2.93
	h44.14c1.618,0,2.93,1.312,2.93,2.93v25.14c0,1.618-1.312,2.93-2.93,2.93H6.93C5.312,41.5,4,40.188,4,38.57z"/>
<path style="fill:#547580;" d="M47.002,40.5H11.035c-0.055,0-0.031-0.061,0-0.106L19.002,24.5h20l8.056,15.896
	C47.088,40.441,47.056,40.5,47.002,40.5z"/>
<path style="fill:#ECF0F1;" d="M29.002,39.5c-0.553,0-1-0.448-1-1v-1c0-0.552,0.447-1,1-1s1,0.448,1,1v1
	C30.002,39.052,29.555,39.5,29.002,39.5z M29.002,35.5c-0.553,0-1-0.448-1-1v-2c0-0.552,0.447-1,1-1s1,0.448,1,1v2
	C30.002,35.052,29.555,35.5,29.002,35.5z M29.002,30.5c-0.553,0-1-0.448-1-1v-2c0-0.552,0.447-1,1-1s1,0.448,1,1v2
	C30.002,30.052,29.555,30.5,29.002,30.5z"/>
<line style="fill:none;stroke:#7F8C8D;stroke-width:2;stroke-linecap:round;stroke-miterlimit:10;" x1="44.032" y1="34.5" x2="44.032" y2="22.5"/>
<path style="fill:#D25627;stroke:#FFFFFF;stroke-width:2;stroke-miterlimit:10;" d="M48.82,18.875l-1.826-2.85
	c-0.215-0.329-0.578-0.526-0.971-0.526H42.35c-0.393,0-0.756,0.197-0.975,0.533l-1.821,2.842c-0.243,0.38-0.243,0.87,0,1.25
	l1.825,2.85c0.215,0.329,0.578,0.526,0.971,0.526h3.673c0.393,0,0.756-0.197,0.975-0.533l1.829-2.854
	C49.059,19.741,49.059,19.259,48.82,18.875z"/>
<path style="fill:#ECF0F1;" d="M10.239,48.5H7.761C7.341,48.5,7,48.159,7,47.739v-2.479c0-0.42,0.341-0.761,0.761-0.761h2.479
	c0.42,0,0.761,0.341,0.761,0.761v2.479C11,48.159,10.659,48.5,10.239,48.5z"/>
<path style="fill:#ECF0F1;" d="M18.239,48.5h-2.479c-0.42,0-0.761-0.341-0.761-0.761v-2.479c0-0.42,0.341-0.761,0.761-0.761h2.479
	c0.42,0,0.761,0.341,0.761,0.761v2.479C19,48.159,18.659,48.5,18.239,48.5z"/>
<g>
</g>
<g>
</g>
<g>
</g>
<g>
</g>
<g>
</g>
<g>
</g>
<g>
</g>
<g>
</g>
<g>
</g>
<g>
</g>
<g>
</g>
<g>
</g>
<g>
</g>
<g>
</g>
<g>
</g>
</svg>
