<?xml version="1.0" encoding="iso-8859-1"?>
<!-- Generator: Adobe Illustrator 19.0.0, SVG Export Plug-In . SVG Version: 6.00 Build 0)  -->
<svg version="1.1" id="Capa_1" xmlns="http://www.w3.org/2000/svg" xmlns:xlink="http://www.w3.org/1999/xlink" x="0px" y="0px"
	 viewBox="0 0 58 58" style="enable-background:new 0 0 58 58;" xml:space="preserve">
<path style="fill:#7F8C8D;" d="M52.262,51.5H5.738C2.569,51.5,0,48.931,0,45.762V12.238C0,9.069,2.569,6.5,5.738,6.5h46.524
	C55.431,6.5,58,9.069,58,12.238v33.524C58,48.931,55.431,51.5,52.262,51.5z"/>
<path style="fill:#F4E6CE;" d="M4,38.57V13.43c0-1.618,1.312-2.93,2.93-2.93h44.14c1.618,0,2.93,1.312,2.93,2.93v25.14
	c0,1.618-1.312,2.93-2.93,2.93H6.93C5.312,41.5,4,40.188,4,38.57z"/>
<path style="fill:#FFFFFF;" d="M51.07,42.5H6.93C4.763,42.5,3,40.737,3,38.57V13.43C3,11.263,4.763,9.5,6.93,9.5H51.07
	c2.167,0,3.93,1.763,3.93,3.93v25.14C55,40.737,53.237,42.5,51.07,42.5z M6.93,11.5C5.865,11.5,5,12.366,5,13.43v25.14
	c0,1.064,0.865,1.93,1.93,1.93H51.07c1.064,0,1.93-0.866,1.93-1.93V13.43c0-1.064-0.865-1.93-1.93-1.93H6.93z"/>
<path style="fill:#A4E869;" d="M10.239,48.5H7.761C7.341,48.5,7,48.159,7,47.739v-2.479c0-0.42,0.341-0.761,0.761-0.761h2.479
	c0.42,0,0.761,0.341,0.761,0.761v2.479C11,48.159,10.659,48.5,10.239,48.5z"/>
<path style="fill:#EDE71B;" d="M18.239,48.5h-2.479c-0.42,0-0.761-0.341-0.761-0.761v-2.479c0-0.42,0.341-0.761,0.761-0.761h2.479
	c0.42,0,0.761,0.341,0.761,0.761v2.479C19,48.159,18.659,48.5,18.239,48.5z"/>
<polygon style="fill:#48A0DC;" points="25.73,27.34 15,25.541 38.155,14.915 26.959,37.5 "/>
<path style="fill:#F0C419;" d="M17,18.5v-7H6.93C5.865,11.5,5,12.366,5,13.43v2.07L17,18.5z"/>
<path style="fill:#F0C419;" d="M53,20.5v-7.07c0-1.064-0.865-1.93-1.93-1.93H43v7L53,20.5z"/>
<path style="fill:#F0C419;" d="M53,38.57V36.5l-10-1v5h8.07C52.135,40.5,53,39.634,53,38.57z"/>
<path style="fill:#F0C419;" d="M5,31.5v7.07c0,1.064,0.865,1.93,1.93,1.93H17v-6L5,31.5z"/>
<g>
</g>
<g>
</g>
<g>
</g>
<g>
</g>
<g>
</g>
<g>
</g>
<g>
</g>
<g>
</g>
<g>
</g>
<g>
</g>
<g>
</g>
<g>
</g>
<g>
</g>
<g>
</g>
<g>
</g>
</svg>
