<?xml version="1.0" encoding="iso-8859-1"?>
<!-- Generator: Adobe Illustrator 19.0.0, SVG Export Plug-In . SVG Version: 6.00 Build 0)  -->
<svg version="1.1" id="Capa_1" xmlns="http://www.w3.org/2000/svg" xmlns:xlink="http://www.w3.org/1999/xlink" x="0px" y="0px"
	 viewBox="0 0 59.098 59.098" style="enable-background:new 0 0 59.098 59.098;" xml:space="preserve">
<circle style="fill:#546A79;stroke:#546A79;stroke-width:2;stroke-linecap:round;stroke-linejoin:round;stroke-miterlimit:10;" cx="29.612" cy="26.961" r="2.5"/>
<g>
	<path style="fill:#CB8252;" d="M43.396,27.48l-5.978-2.343c-0.327-0.13-0.698-0.075-0.977,0.14s-0.424,0.561-0.382,0.91
		c0.03,0.254,0.052,0.512,0.052,0.774c0,1.543-0.555,3.041-1.561,4.217c-0.211,0.246-0.289,0.579-0.21,0.893
		c0.078,0.314,0.304,0.57,0.604,0.688l5.748,2.254c0.119,0.047,0.243,0.069,0.365,0.069c0.336,0,0.661-0.171,0.849-0.471
		c1.173-1.878,1.885-3.929,2.117-6.095C44.073,28.069,43.815,27.644,43.396,27.48z"/>
	<path style="fill:#CB8252;" d="M58.762,34.76c-0.428-0.979-1.212-1.733-2.206-2.123l-5.544-2.173
		c-0.275-0.108-0.582-0.088-0.84,0.051c-0.259,0.14-0.443,0.386-0.504,0.674c-0.394,1.867-1.053,3.676-1.958,5.376
		c-0.134,0.252-0.154,0.549-0.056,0.816c0.1,0.268,0.308,0.48,0.573,0.584l5.408,2.12c0.469,0.184,0.959,0.277,1.459,0.277
		c1.658,0,3.12-0.998,3.725-2.541C59.21,36.826,59.189,35.74,58.762,34.76z"/>
	<path style="fill:#CB8252;" d="M36.172,24.444c0.021,0.001,0.042,0.002,0.063,0.002c0.324,0,0.63-0.157,0.817-0.424l3.665-5.205
		c0.263-0.373,0.24-0.876-0.056-1.224c-1.402-1.65-3.185-2.987-5.155-3.868c-0.435-0.193-0.948-0.055-1.226,0.338l-3.575,5.077
		c-0.188,0.269-0.234,0.611-0.122,0.919s0.368,0.541,0.685,0.624c1.748,0.46,3.236,1.638,4.084,3.232
		C35.515,24.222,35.826,24.422,36.172,24.444z"/>
	<path style="fill:#CB8252;" d="M49.746,3.956c-0.184-1.053-0.766-1.971-1.64-2.586c-0.678-0.478-1.473-0.729-2.299-0.729
		c-1.301,0-2.525,0.635-3.273,1.698l-3.591,5.102c-0.165,0.233-0.222,0.526-0.156,0.805c0.066,0.278,0.248,0.516,0.5,0.651
		c1.67,0.898,3.221,2.039,4.61,3.392c0.188,0.183,0.438,0.283,0.697,0.283c0.03,0,0.062-0.001,0.093-0.004
		c0.291-0.027,0.557-0.181,0.725-0.421l3.663-5.203C49.69,6.07,49.928,5.009,49.746,3.956z"/>
	<path style="fill:#CB8252;" d="M28.534,20.08c0.109-0.306,0.063-0.646-0.124-0.911l-3.562-5.061
		c-0.276-0.394-0.795-0.532-1.232-0.335c-1.975,0.901-3.749,2.252-5.131,3.904c-0.29,0.348-0.311,0.847-0.05,1.217l3.685,5.233
		c0.188,0.268,0.493,0.425,0.817,0.425c0.023,0,0.047-0.001,0.07-0.003c0.35-0.024,0.66-0.229,0.82-0.542
		c0.824-1.611,2.295-2.814,4.034-3.301C28.174,20.62,28.425,20.386,28.534,20.08z"/>
	<path style="fill:#CB8252;" d="M19.847,8.94c0.25-0.136,0.431-0.373,0.495-0.65c0.065-0.278,0.008-0.57-0.156-0.803l-3.624-5.148
		c-0.748-1.063-1.973-1.697-3.273-1.697c-0.826,0-1.621,0.252-2.299,0.729c-0.874,0.615-1.456,1.533-1.64,2.586
		C9.168,5.009,9.406,6.07,10.021,6.945l3.713,5.273c0.169,0.239,0.435,0.394,0.728,0.42c0.03,0.003,0.06,0.004,0.09,0.004
		c0.261,0,0.513-0.103,0.701-0.287C16.635,10.996,18.181,9.847,19.847,8.94z"/>
	<path style="fill:#CB8252;" d="M23.112,26.961c0-0.279,0.023-0.552,0.058-0.823c0.044-0.35-0.1-0.697-0.378-0.913
		c-0.279-0.217-0.651-0.271-0.979-0.142l-5.992,2.35c-0.418,0.164-0.676,0.587-0.63,1.034c0.226,2.164,0.932,4.218,2.1,6.102
		c0.187,0.301,0.512,0.473,0.85,0.473c0.122,0,0.246-0.022,0.365-0.069l5.739-2.249c0.3-0.117,0.524-0.372,0.604-0.685
		c0.079-0.313,0.003-0.645-0.205-0.891C23.656,29.977,23.112,28.49,23.112,26.961z"/>
	<path style="fill:#CB8252;" d="M9.543,31.146c-0.06-0.288-0.243-0.535-0.503-0.676c-0.259-0.141-0.565-0.161-0.841-0.051
		l-5.66,2.218c-2.053,0.806-3.068,3.131-2.264,5.185c0.604,1.543,2.066,2.54,3.725,2.541c0.5,0,0.99-0.094,1.459-0.277l5.516-2.162
		c0.265-0.104,0.474-0.316,0.572-0.583c0.1-0.268,0.079-0.564-0.054-0.816C10.587,34.816,9.931,33.006,9.543,31.146z"/>
	<path style="fill:#CB8252;" d="M26.891,41.177c0.941,0.188,1.899,0.284,2.848,0.284c1.175,0,2.385-0.158,3.598-0.469
		c0.442-0.113,0.752-0.513,0.751-0.97l-0.009-6.354c0-0.347-0.18-0.668-0.475-0.85c-0.294-0.183-0.662-0.198-0.972-0.044
		c-1.623,0.808-3.483,0.908-5.198,0.258c-0.307-0.117-0.653-0.075-0.924,0.112c-0.271,0.187-0.432,0.495-0.432,0.823l0.009,6.229
		C26.088,40.674,26.424,41.083,26.891,41.177z"/>
	<path style="fill:#CB8252;" d="M33.746,47.389c-0.223-0.189-0.52-0.277-0.809-0.224c-1.211,0.199-2.299,0.296-3.325,0.296
		c-0.731,0-1.516-0.05-2.396-0.153c-0.285-0.037-0.568,0.056-0.781,0.246c-0.214,0.19-0.335,0.463-0.335,0.748l0.008,6.161
		c0.004,2.202,1.799,3.994,4.001,3.994c0.001,0,0.005,0,0.006,0c2.206-0.004,3.997-1.802,3.993-4.006l-0.008-6.301
		C34.099,47.857,33.969,47.578,33.746,47.389z M30.108,57.457L30.108,57.457L30.108,57.457L30.108,57.457z"/>
</g>
<path style="fill:#546A79;" d="M29.612,5.461c-11.855,0-21.5,9.645-21.5,21.5s9.645,21.5,21.5,21.5s21.5-9.645,21.5-21.5
	S41.467,5.461,29.612,5.461z M29.612,40.461c-7.444,0-13.5-6.056-13.5-13.5s6.056-13.5,13.5-13.5s13.5,6.056,13.5,13.5
	S37.055,40.461,29.612,40.461z"/>
<circle style="fill:none;stroke:#7F6E5D;stroke-width:2;stroke-linecap:round;stroke-linejoin:round;stroke-miterlimit:10;" cx="29.612" cy="26.961" r="7.5"/>
<g>
</g>
<g>
</g>
<g>
</g>
<g>
</g>
<g>
</g>
<g>
</g>
<g>
</g>
<g>
</g>
<g>
</g>
<g>
</g>
<g>
</g>
<g>
</g>
<g>
</g>
<g>
</g>
<g>
</g>
</svg>
