<?xml version="1.0" encoding="iso-8859-1"?>
<!-- Generator: Adobe Illustrator 19.0.0, SVG Export Plug-In . SVG Version: 6.00 Build 0)  -->
<svg version="1.1" id="Capa_1" xmlns="http://www.w3.org/2000/svg" xmlns:xlink="http://www.w3.org/1999/xlink" x="0px" y="0px"
	 viewBox="0 0 59 59" style="enable-background:new 0 0 59 59;" xml:space="preserve">
<path style="fill:#E6E6E6;" d="M58.5,59h-58V40c0-13.395,9.081-24.668,21.423-28c2.415-0.652,4.956-1,7.577-1h0
	c16.016,0,29,12.984,29,29V59z"/>
<path style="fill:#FFFFFF;" d="M17.5,59V47.909C17.5,41.894,22.434,37,28.5,37s11,4.894,11,10.909V59H17.5z"/>
<path style="fill:#BDC3C7;" d="M34.5,59h-12V48c0-3.314,2.686-6,6-6h0c3.314,0,6,2.686,6,6V59z"/>
<path style="fill:#FFFFFF;" d="M57.5,59h-2c-0.552,0-1-0.448-1-1s0.448-1,1-1h2c0.552,0,1,0.448,1,1S58.052,59,57.5,59z M51.5,59h-2
	c-0.552,0-1-0.448-1-1s0.448-1,1-1h2c0.552,0,1,0.448,1,1S52.052,59,51.5,59z M48.5,56c-0.552,0-1-0.448-1-1v-2c0-0.552,0.448-1,1-1
	s1,0.448,1,1v2C49.5,55.552,49.052,56,48.5,56z M48.5,50c-0.552,0-1-0.448-1-1v-2c0-0.552,0.448-1,1-1s1,0.448,1,1v2
	C49.5,49.552,49.052,50,48.5,50z"/>
<path style="fill:#FFFFFF;" d="M46.5,27c-0.552,0-1-0.448-1-1v-2c0-0.552,0.448-1,1-1s1,0.448,1,1v2C47.5,26.552,47.052,27,46.5,27z
	 M46.5,21c-0.552,0-1-0.448-1-1v-2c0-0.552,0.448-1,1-1s1,0.448,1,1v2C47.5,20.552,47.052,21,46.5,21z"/>
<path style="fill:#FFFFFF;" d="M11.5,28c-0.552,0-1-0.448-1-1v-2c0-0.552,0.448-1,1-1s1,0.448,1,1v2C12.5,27.552,12.052,28,11.5,28z
	 M11.5,22c-0.552,0-1-0.448-1-1v-2c0-0.552,0.448-1,1-1s1,0.448,1,1v2C12.5,21.552,12.052,22,11.5,22z"/>
<path style="fill:#FFFFFF;" d="M54.5,31h-2c-0.552,0-1-0.448-1-1s0.448-1,1-1h2c0.552,0,1,0.448,1,1S55.052,31,54.5,31z M48.5,31h-2
	c-0.552,0-1-0.448-1-1s0.448-1,1-1h2c0.552,0,1,0.448,1,1S49.052,31,48.5,31z M42.5,31h-2c-0.552,0-1-0.448-1-1s0.448-1,1-1h2
	c0.552,0,1,0.448,1,1S43.052,31,42.5,31z M36.5,31h-2c-0.552,0-1-0.448-1-1s0.448-1,1-1h2c0.552,0,1,0.448,1,1S37.052,31,36.5,31z
	 M30.5,31h-2c-0.552,0-1-0.448-1-1s0.448-1,1-1h2c0.552,0,1,0.448,1,1S31.052,31,30.5,31z M24.5,31h-2c-0.552,0-1-0.448-1-1
	s0.448-1,1-1h2c0.552,0,1,0.448,1,1S25.052,31,24.5,31z M18.5,31h-2c-0.552,0-1-0.448-1-1s0.448-1,1-1h2c0.552,0,1,0.448,1,1
	S19.052,31,18.5,31z M12.5,31h-2c-0.552,0-1-0.448-1-1s0.448-1,1-1h2c0.552,0,1,0.448,1,1S13.052,31,12.5,31z M6.5,31h-2
	c-0.552,0-1-0.448-1-1s0.448-1,1-1h2c0.552,0,1,0.448,1,1S7.052,31,6.5,31z"/>
<path style="fill:#FFFFFF;" d="M9.5,59h-2c-0.552,0-1-0.448-1-1s0.448-1,1-1h2c0.552,0,1,0.448,1,1S10.052,59,9.5,59z M3.5,59h-2
	c-0.552,0-1-0.448-1-1s0.448-1,1-1h2c0.552,0,1,0.448,1,1S4.052,59,3.5,59z M10.5,56c-0.552,0-1-0.448-1-1v-2c0-0.552,0.448-1,1-1
	s1,0.448,1,1v2C11.5,55.552,11.052,56,10.5,56z M10.5,50c-0.552,0-1-0.448-1-1v-2c0-0.552,0.448-1,1-1s1,0.448,1,1v2
	C11.5,49.552,11.052,50,10.5,50z"/>
<path style="fill:#FFFFFF;" d="M15.5,45h-2c-0.552,0-1-0.448-1-1s0.448-1,1-1h2c0.552,0,1,0.448,1,1S16.052,45,15.5,45z M9.5,45h-2
	c-0.552,0-1-0.448-1-1s0.448-1,1-1h2c0.552,0,1,0.448,1,1S10.052,45,9.5,45z M3.5,45h-2c-0.552,0-1-0.448-1-1s0.448-1,1-1h2
	c0.552,0,1,0.448,1,1S4.052,45,3.5,45z"/>
<path style="fill:#FFFFFF;" d="M57.5,45h-0.743c-0.552,0-1-0.448-1-1s0.448-1,1-1H57.5c0.552,0,1,0.448,1,1S58.052,45,57.5,45z
	 M52.757,45h-2c-0.552,0-1-0.448-1-1s0.448-1,1-1h2c0.552,0,1,0.448,1,1S53.31,45,52.757,45z M46.757,45h-2c-0.552,0-1-0.448-1-1
	s0.448-1,1-1h2c0.552,0,1,0.448,1,1S47.31,45,46.757,45z M40.757,45h-2c-0.552,0-1-0.448-1-1s0.448-1,1-1h2c0.552,0,1,0.448,1,1
	S41.31,45,40.757,45z"/>
<path style="fill:#FFFFFF;" d="M28.5,37c-0.552,0-1-0.448-1-1v-2c0-0.552,0.448-1,1-1s1,0.448,1,1v2C29.5,36.552,29.052,37,28.5,37z
	"/>
<line style="fill:none;stroke:#7F8C8D;stroke-width:2;stroke-linecap:round;stroke-miterlimit:10;" x1="28.5" y1="1" x2="28.5" y2="11"/>
<path style="fill:#ED7161;" d="M28.5,9V1.473c0-0.24,0.226-0.417,0.459-0.358L44.5,5L28.5,9z"/>
<g>
</g>
<g>
</g>
<g>
</g>
<g>
</g>
<g>
</g>
<g>
</g>
<g>
</g>
<g>
</g>
<g>
</g>
<g>
</g>
<g>
</g>
<g>
</g>
<g>
</g>
<g>
</g>
<g>
</g>
</svg>
