<?xml version="1.0" encoding="iso-8859-1"?>
<!-- Generator: Adobe Illustrator 19.0.0, SVG Export Plug-In . SVG Version: 6.00 Build 0)  -->
<svg version="1.1" id="Capa_1" xmlns="http://www.w3.org/2000/svg" xmlns:xlink="http://www.w3.org/1999/xlink" x="0px" y="0px"
	 viewBox="0 0 59 59" style="enable-background:new 0 0 59 59;" xml:space="preserve">
<path style="fill:#EEAF4B;" d="M32.412,47.558c0.338,1.434,0.51,2.361,0.547,2.541l-3.918,0.803
	c-0.011-0.052-0.263-1.326-0.79-3.371C13.05,48.017,1,47.786,1,55.5h58C59,47.898,47.299,48.217,32.412,47.558z"/>
<path style="fill:#7F5B53;" d="M29.041,50.902C28.992,50.666,24.029,25.508,10.87,16.5l1.13-1
	c16.208,8.292,20.749,33.569,20.959,34.599L29.041,50.902z"/>
<path style="fill:#4FBA6F;" d="M2,27.5c-0.552,0-1-0.448-1-1c0-6.065,4.935-11,11-11c0.552,0,1,0.448,1,1c0,0.552-0.448,1-1,1
	c-4.962,0-9,4.038-9,9C3,27.052,2.552,27.5,2,27.5z"/>
<path style="fill:#4FBA6F;" d="M12,17.5c-0.552,0-1-0.448-1-1c0-6.065,4.935-11,11-11c0.552,0,1,0.448,1,1s-0.448,1-1,1
	c-4.962,0-9,4.038-9,9C13,17.052,12.552,17.5,12,17.5z"/>
<path style="fill:#88C057;" d="M11,29.5c-0.226,0-0.452-0.076-0.639-0.231c-2.746-2.283-4.095-7.218-2.887-10.56
	C8.221,16.64,9.829,15.5,12,15.5c0.552,0,1,0.448,1,1c0,0.552-0.448,1-1,1c-1.321,0-2.187,0.618-2.646,1.889
	c-0.92,2.546,0.19,6.601,2.285,8.342c0.425,0.353,0.483,0.984,0.13,1.408C11.571,29.377,11.286,29.5,11,29.5z"/>
<path style="fill:#4C8056;" d="M12,17.5c-0.552,0-1-0.448-1-1c0-2.558,1.705-4.549,4.676-5.463c3.127-0.961,7.514-0.507,9.151,1.901
	c0.311,0.457,0.192,1.079-0.265,1.389c-0.456,0.31-1.079,0.191-1.389-0.265c-0.952-1.401-4.245-1.933-6.909-1.113
	C15.045,13.324,13,14.284,13,16.5C13,17.052,12.552,17.5,12,17.5z"/>
<path style="fill:#4C8056;" d="M0.999,19.5c-0.209,0-0.421-0.066-0.602-0.202c-0.441-0.333-0.528-0.96-0.196-1.401
	c1.116-1.479,3.466-4.006,6.663-4.314c2.029-0.198,3.981,0.536,5.804,2.173c0.411,0.369,0.444,1.001,0.075,1.412
	c-0.368,0.411-1.001,0.445-1.412,0.075c-1.389-1.248-2.83-1.809-4.274-1.67c-2.436,0.235-4.34,2.312-5.259,3.529
	C1.602,19.363,1.302,19.5,0.999,19.5z"/>
<path style="fill:#88C057;" d="M12,17.5c-0.256,0-0.512-0.098-0.707-0.293c-2.267-2.267-2.864-5.444-1.598-8.5
	C10.985,5.592,13.921,3.5,17,3.5c0.552,0,1,0.448,1,1s-0.448,1-1,1c-2.28,0-4.473,1.596-5.457,3.972
	c-0.946,2.283-0.511,4.646,1.164,6.321c0.391,0.391,0.391,1.023,0,1.414C12.512,17.402,12.256,17.5,12,17.5z"/>
<rect x="24.442" y="31.523" transform="matrix(0.4179 0.9085 -0.9085 0.4179 45.1635 -3.6658)" style="fill:#804537;" width="2" height="3.774"/>
<path style="fill:#804537;" d="M23.99,26.976l-0.526-0.794l-2.701,1.993c0.165,0.294,0.325,0.59,0.485,0.887l0.475,0.89l2.801-2.121
	C24.347,27.545,24.174,27.258,23.99,26.976z"/>
<path style="fill:#804537;" d="M31.631,44.54l-0.281-0.979l-3.712,1.714c0.096,0.337,0.186,0.662,0.272,0.975l0.305,1.14
	l3.684-1.873C31.816,45.204,31.726,44.877,31.631,44.54z"/>
<path style="fill:#804537;" d="M29.527,38.134l-0.418-0.908l-3.541,1.628c0.115,0.318,0.23,0.636,0.339,0.947l0.313,0.907
	l3.654-1.632C29.761,38.765,29.648,38.453,29.527,38.134z"/>
<path style="fill:#71C285;" d="M42,18.5c-0.552,0-1-0.448-1-1c0-4.962-4.038-9-9-9c-0.552,0-1-0.448-1-1s0.448-1,1-1
	c6.065,0,11,4.935,11,11C43,18.052,42.552,18.5,42,18.5z"/>
<path style="fill:#4C8056;" d="M52,28.5c-0.552,0-1-0.448-1-1c0-4.962-4.038-9-9-9c-0.552,0-1-0.448-1-1s0.448-1,1-1
	c6.065,0,11,4.935,11,11C53,28.052,52.552,28.5,52,28.5z"/>
<path style="fill:#88C057;" d="M42,18.5c-0.552,0-1-0.448-1-1c0-1.321-0.618-2.187-1.889-2.646c-2.548-0.922-6.601,0.19-8.342,2.285
	c-0.353,0.425-0.985,0.483-1.408,0.13c-0.425-0.353-0.483-0.984-0.13-1.408c2.284-2.746,7.219-4.096,10.56-2.887
	C41.861,13.721,43,15.329,43,17.5C43,18.052,42.552,18.5,42,18.5z"/>
<path style="fill:#88C057;" d="M45.001,30.5c-0.32,0-0.635-0.153-0.828-0.438c-0.311-0.457-0.192-1.079,0.265-1.389
	c1.402-0.953,1.933-4.246,1.113-6.909C45.176,20.545,44.216,18.5,42,18.5c-0.552,0-1-0.448-1-1s0.448-1,1-1
	c2.558,0,4.549,1.705,5.463,4.676c0.962,3.126,0.508,7.514-1.901,9.151C45.39,30.444,45.194,30.5,45.001,30.5z"/>
<path style="fill:#4C8056;" d="M42,18.5c-0.241,0-0.482-0.086-0.674-0.262c-0.408-0.372-0.437-1.005-0.064-1.413
	c1.382-1.514,1.953-3.206,1.649-4.893c-0.302-1.682-1.42-3.056-2.369-3.543c-0.491-0.252-0.685-0.855-0.432-1.347
	c0.252-0.491,0.855-0.683,1.347-0.432c1.387,0.713,2.983,2.526,3.422,4.968c0.291,1.62,0.156,4.079-2.142,6.595
	C42.541,18.39,42.271,18.5,42,18.5z"/>
<path style="fill:#71C285;" d="M54,23.5c-0.552,0-1-0.448-1-1c0-2.28-1.596-4.473-3.972-5.457c-2.283-0.947-4.647-0.51-6.321,1.164
	c-0.391,0.391-1.023,0.391-1.414,0s-0.391-1.023,0-1.414c2.266-2.267,5.446-2.864,8.5-1.598C52.908,16.485,55,19.42,55,22.5
	C55,23.052,54.552,23.5,54,23.5z"/>
<path style="fill:#805333;" d="M31.841,45.301C34.768,34.229,43.907,17.651,44,17.5l-2-1.058
	c-0.34,0.545-8.089,13.479-11.974,23.048C30.798,41.658,31.394,43.644,31.841,45.301z"/>
<g>
</g>
<g>
</g>
<g>
</g>
<g>
</g>
<g>
</g>
<g>
</g>
<g>
</g>
<g>
</g>
<g>
</g>
<g>
</g>
<g>
</g>
<g>
</g>
<g>
</g>
<g>
</g>
<g>
</g>
</svg>
