<?xml version="1.0" encoding="iso-8859-1"?>
<!-- Generator: Adobe Illustrator 19.0.0, SVG Export Plug-In . SVG Version: 6.00 Build 0)  -->
<svg version="1.1" id="Capa_1" xmlns="http://www.w3.org/2000/svg" xmlns:xlink="http://www.w3.org/1999/xlink" x="0px" y="0px"
	 viewBox="0 0 57 57" style="enable-background:new 0 0 57 57;" xml:space="preserve">
<path style="fill:#EA683F;" d="M28.5,57h23V25.682c0-0.361-0.25-0.669-0.601-0.75C44.696,23.503,44.5,1.247,44.5,1.247
	s-0.001-0.01-0.003-0.029c-0.18-1.402-2.105-1.674-2.699-0.391C39.846,5.043,34.132,15,28.5,15S17.154,5.043,15.202,0.826
	c-0.594-1.283-2.519-1.011-2.699,0.391C12.501,1.237,12.5,1.247,12.5,1.247s-0.196,22.256-6.399,23.685
	C5.75,25.013,5.5,25.321,5.5,25.682V57H28.5z"/>
<path style="fill:#ECF0F1;" d="M21.841,38h-9.683c-0.364,0-0.659-0.295-0.659-0.659v-8.683c0-0.364,0.295-0.659,0.659-0.659h9.683
	c0.364,0,0.659,0.295,0.659,0.659v8.683C22.5,37.705,22.205,38,21.841,38z"/>
<path style="fill:#ECF0F1;" d="M44.841,38h-9.683c-0.364,0-0.659-0.295-0.659-0.659v-8.683c0-0.364,0.295-0.659,0.659-0.659h9.683
	c0.364,0,0.659,0.295,0.659,0.659v8.683C45.5,37.705,45.205,38,44.841,38z"/>
<rect x="45.5" y="30" style="fill:#546A79;" width="6" height="6"/>
<rect x="5.5" y="30" style="fill:#546A79;" width="6" height="6"/>
<path style="fill:#ECF0F1;" d="M33.841,53h-9.683c-0.364,0-0.659-0.295-0.659-0.659v-8.683c0-0.364,0.295-0.659,0.659-0.659h9.683
	c0.364,0,0.659,0.295,0.659,0.659v8.683C34.5,52.705,34.205,53,33.841,53z"/>
<rect x="34.5" y="45" style="fill:#546A79;" width="17" height="6"/>
<rect x="5.5" y="45" style="fill:#546A79;" width="18" height="6"/>
<path style="fill:#D25627;" d="M15.202,0.826C17.154,5.043,22.868,15,28.5,15S39.846,5.043,41.798,0.826
	c0.332-0.717,1.076-0.933,1.702-0.752V0h-30v0.074C14.127-0.107,14.87,0.109,15.202,0.826z"/>
<path style="fill:#546A79;" d="M30.5,14.602C29.836,14.856,29.168,15,28.5,15s-1.336-0.144-2-0.398V30h-4v6h12v-6h-4V14.602z"/>
<g>
</g>
<g>
</g>
<g>
</g>
<g>
</g>
<g>
</g>
<g>
</g>
<g>
</g>
<g>
</g>
<g>
</g>
<g>
</g>
<g>
</g>
<g>
</g>
<g>
</g>
<g>
</g>
<g>
</g>
</svg>
