<?xml version="1.0" encoding="iso-8859-1"?>
<!-- Generator: Adobe Illustrator 19.0.0, SVG Export Plug-In . SVG Version: 6.00 Build 0)  -->
<svg version="1.1" id="Capa_1" xmlns="http://www.w3.org/2000/svg" xmlns:xlink="http://www.w3.org/1999/xlink" x="0px" y="0px"
	 viewBox="0 0 58 58" style="enable-background:new 0 0 58 58;" xml:space="preserve">
<path style="fill:#ECF0F1;" d="M16.588,32.823c-0.557-1.803-0.742-3.75-0.445-5.742c0.121-0.811,0.323-1.589,0.581-2.337
	c-0.016-0.006-0.032-0.003-0.047-0.01l-8.231-3.577c-0.554,1.456-0.966,2.991-1.205,4.595c-0.539,3.611-0.162,7.145,0.947,10.375
	l8.373-3.3C16.57,32.824,16.579,32.826,16.588,32.823z"/>
<path style="fill:#E1705C;" d="M17.516,22.93c1.301-2.462,3.346-4.425,5.806-5.622c-0.005-0.012-0.014-0.021-0.019-0.033
	l-3.292-8.352c-4.641,2.083-8.492,5.739-10.773,10.398l8.234,3.578C17.49,22.908,17.5,22.922,17.516,22.93z"/>
<path style="fill:#E1705C;" d="M22.931,40.484c-2.461-1.301-4.424-3.345-5.622-5.804c-0.005,0.002-0.008,0.007-0.014,0.009
	l-8.372,3.3c2.083,4.64,5.739,8.492,10.398,10.772l3.576-8.229C22.906,40.513,22.922,40.502,22.931,40.484z"/>
<path style="fill:#ECF0F1;" d="M25.173,16.589c1.804-0.558,3.753-0.744,5.746-0.447c0.809,0.121,1.584,0.322,2.33,0.579
	c0.002-0.004,0.001-0.009,0.003-0.014l3.59-8.262c-1.456-0.554-2.991-0.966-4.595-1.205c-3.611-0.539-7.146-0.162-10.375,0.947
	l3.293,8.355C25.171,16.558,25.168,16.574,25.173,16.589z"/>
<path style="fill:#E1705C;" d="M35.076,17.52c2.46,1.303,4.423,3.348,5.619,5.809c0.019-0.009,0.032-0.026,0.052-0.034l8.329-3.283
	c-2.083-4.64-5.739-8.492-10.398-10.772l-3.592,8.266C35.083,17.511,35.079,17.515,35.076,17.52z"/>
<path style="fill:#ECF0F1;" d="M32.82,41.413c-1.802,0.556-3.749,0.742-5.739,0.445c-0.811-0.121-1.589-0.323-2.337-0.582
	c-0.006,0.017-0.004,0.035-0.011,0.052l-3.575,8.226c1.456,0.554,2.991,0.966,4.595,1.205c3.611,0.539,7.145,0.162,10.375-0.947
	l-3.304-8.383C32.821,41.424,32.822,41.418,32.82,41.413z"/>
<path style="fill:#ECF0F1;" d="M49.812,21.872l-8.33,3.284c-0.024,0.009-0.048,0.006-0.071,0.013
	c0.559,1.805,0.745,3.755,0.448,5.749c-0.121,0.81-0.322,1.586-0.58,2.333c0.009,0.004,0.019,0.002,0.028,0.006l8.248,3.585
	c0.554-1.456,0.966-2.991,1.205-4.595C51.298,28.637,50.921,25.102,49.812,21.872z"/>
<path style="fill:#E1705C;" d="M40.482,35.073c-1.301,2.459-3.343,4.42-5.8,5.617c0.001,0.002,0.002,0.003,0.003,0.005l3.304,8.382
	c4.64-2.083,8.492-5.739,10.772-10.398l-8.252-3.586C40.498,35.087,40.492,35.078,40.482,35.073z"/>
<path style="fill:#FBD490;" d="M36.137,49.835c0.155,0.393,0.532,0.633,0.931,0.633c0.122,0,0.246-0.022,0.367-0.069
	c0.514-0.203,0.766-0.783,0.563-1.298l-0.01-0.025c-0.607,0.273-1.228,0.518-1.861,0.736L36.137,49.835z"/>
<path style="fill:#FBD490;" d="M33.387,40.131c-0.509,0.201-0.757,0.771-0.566,1.282c0.64-0.197,1.264-0.433,1.861-0.724
	C34.476,40.181,33.901,39.931,33.387,40.131z"/>
<path style="fill:#FBD490;" d="M34.681,40.689c-0.597,0.291-1.221,0.526-1.861,0.724c0.002,0.005,0.001,0.011,0.003,0.016
	l3.304,8.383c0.633-0.217,1.253-0.463,1.861-0.736l-3.304-8.382C34.684,40.692,34.682,40.691,34.681,40.689z"/>
<path style="fill:#FBD490;" d="M24.234,17.909c0.122,0,0.246-0.022,0.366-0.069c0.5-0.197,0.743-0.749,0.573-1.251
	c-0.636,0.197-1.257,0.43-1.85,0.719C23.486,17.68,23.848,17.909,24.234,17.909z"/>
<path style="fill:#FBD490;" d="M21.863,8.166c-0.203-0.515-0.785-0.765-1.297-0.564c-0.515,0.203-0.767,0.783-0.564,1.297
	l0.01,0.025c0.607-0.273,1.228-0.518,1.86-0.735L21.863,8.166z"/>
<path style="fill:#FBD490;" d="M23.323,17.308c0.594-0.289,1.214-0.523,1.85-0.719c-0.005-0.015-0.002-0.031-0.008-0.046
	l-3.293-8.355c-0.633,0.217-1.253,0.463-1.86,0.735l3.292,8.352C23.309,17.288,23.318,17.296,23.323,17.308z"/>
<path style="fill:#FBD490;" d="M39.99,33.776c-0.216,0.496,0.006,1.067,0.492,1.297c0.308-0.581,0.577-1.187,0.796-1.821
	C40.775,33.048,40.205,33.279,39.99,33.776z"/>
<path style="fill:#FBD490;" d="M48.778,38.686c0.13,0.057,0.265,0.083,0.397,0.083c0.387,0,0.755-0.225,0.918-0.602
	c0.221-0.507-0.012-1.096-0.519-1.315l-0.021-0.009c-0.239,0.627-0.502,1.24-0.793,1.836L48.778,38.686z"/>
<path style="fill:#FBD490;" d="M41.277,33.252c-0.219,0.634-0.488,1.24-0.796,1.821c0.01,0.005,0.017,0.014,0.027,0.019l8.252,3.586
	c0.292-0.596,0.555-1.209,0.793-1.836l-8.248-3.585C41.296,33.254,41.287,33.255,41.277,33.252z"/>
<path style="fill:#FBD490;" d="M17.992,24.216c0.213-0.49-0.003-1.05-0.476-1.286c-0.306,0.579-0.574,1.182-0.793,1.814
	c0.115,0.044,0.233,0.073,0.35,0.073C17.461,24.817,17.829,24.593,17.992,24.216z"/>
<path style="fill:#FBD490;" d="M9.222,19.314c-0.51-0.224-1.097,0.012-1.315,0.519c-0.221,0.507,0.012,1.096,0.519,1.315
	l0.021,0.009c0.239-0.627,0.502-1.24,0.793-1.836L9.222,19.314z"/>
<path style="fill:#FBD490;" d="M16.724,24.744c0.218-0.632,0.486-1.235,0.793-1.814c-0.016-0.008-0.026-0.023-0.043-0.03
	l-8.234-3.578c-0.292,0.596-0.555,1.209-0.793,1.836l8.231,3.577C16.692,24.741,16.708,24.738,16.724,24.744z"/>
<path style="fill:#FBD490;" d="M17.859,33.391c-0.2-0.504-0.762-0.75-1.272-0.568c0.197,0.638,0.432,1.261,0.722,1.857
	C17.813,34.471,18.059,33.9,17.859,33.391z"/>
<path style="fill:#FBD490;" d="M8.165,36.137c-0.514,0.203-0.766,0.783-0.563,1.298c0.155,0.393,0.532,0.633,0.931,0.633
	c0.122,0,0.246-0.022,0.367-0.069l0.025-0.01c-0.273-0.607-0.518-1.228-0.736-1.861L8.165,36.137z"/>
<path style="fill:#FBD490;" d="M17.31,34.68c-0.29-0.596-0.525-1.219-0.722-1.857c-0.009,0.003-0.018,0.001-0.026,0.005l-8.373,3.3
	c0.217,0.633,0.463,1.253,0.736,1.861l8.372-3.3C17.301,34.686,17.304,34.682,17.31,34.68z"/>
<path style="fill:#FBD490;" d="M49.835,21.863c0.514-0.203,0.766-0.783,0.563-1.298c-0.203-0.513-0.782-0.764-1.298-0.563
	l-0.025,0.01c0.273,0.607,0.518,1.228,0.736,1.861L49.835,21.863z"/>
<path style="fill:#FBD490;" d="M40.184,24.593c0.155,0.393,0.532,0.633,0.931,0.633c0.098,0,0.197-0.026,0.296-0.056
	c-0.196-0.632-0.428-1.25-0.715-1.841C40.221,23.552,39.989,24.098,40.184,24.593z"/>
<path style="fill:#FBD490;" d="M40.695,23.329c0.287,0.591,0.519,1.209,0.715,1.841c0.024-0.007,0.048-0.004,0.071-0.013l8.33-3.284
	c-0.217-0.633-0.463-1.253-0.736-1.861l-8.329,3.283C40.727,23.303,40.714,23.32,40.695,23.329z"/>
<path style="fill:#FBD490;" d="M19.314,48.778c-0.221,0.507,0.012,1.096,0.519,1.315c0.13,0.057,0.265,0.083,0.397,0.083
	c0.387,0,0.755-0.225,0.918-0.602l0.009-0.021c-0.627-0.239-1.24-0.502-1.836-0.793L19.314,48.778z"/>
<path style="fill:#FBD490;" d="M24.214,40.013c-0.49-0.215-1.047,0.002-1.283,0.471c0.579,0.306,1.181,0.574,1.812,0.792
	C24.928,40.781,24.704,40.225,24.214,40.013z"/>
<path style="fill:#FBD490;" d="M24.744,41.276c-0.631-0.218-1.234-0.486-1.812-0.792c-0.009,0.018-0.025,0.029-0.033,0.047
	l-3.576,8.229c0.596,0.292,1.209,0.555,1.836,0.793l3.575-8.226C24.74,41.311,24.737,41.293,24.744,41.276z"/>
<path style="fill:#FBD490;" d="M38.686,9.222c0.221-0.507-0.012-1.096-0.519-1.315c-0.509-0.222-1.097,0.012-1.315,0.519
	l-0.009,0.021c0.627,0.239,1.24,0.502,1.836,0.793L38.686,9.222z"/>
<path style="fill:#FBD490;" d="M33.771,18.023c0.13,0.057,0.265,0.083,0.397,0.083c0.381,0,0.742-0.22,0.908-0.586
	c-0.583-0.309-1.191-0.579-1.827-0.798C33.038,17.226,33.268,17.806,33.771,18.023z"/>
<path style="fill:#FBD490;" d="M33.249,16.722c0.636,0.219,1.244,0.49,1.827,0.798c0.003-0.006,0.007-0.01,0.01-0.015l3.592-8.266
	c-0.595-0.292-1.209-0.555-1.836-0.793l-3.59,8.262C33.25,16.712,33.251,16.717,33.249,16.722z"/>
<path style="fill:#F4E6CE;" d="M54,27c-0.553,0-1-0.447-1-1c0-13.3-3.437-21-21-21c-0.553,0-1-0.447-1-1s0.447-1,1-1
	c19.152,0,23,8.801,23,23C55,26.553,54.553,27,54,27z"/>
<path style="fill:#F4E6CE;" d="M4,27c-0.553,0-1-0.447-1-1C3,11.801,6.848,3,26,3c0.553,0,1,0.447,1,1s-0.447,1-1,1
	C8.437,5,5,12.7,5,26C5,26.553,4.553,27,4,27z"/>
<path style="fill:#F4E6CE;" d="M26,55C6.848,55,3,46.199,3,32c0-0.553,0.447-1,1-1s1,0.447,1,1c0,13.3,3.437,21,21,21
	c0.553,0,1,0.447,1,1S26.553,55,26,55z"/>
<path style="fill:#F4E6CE;" d="M32,55c-0.553,0-1-0.447-1-1s0.447-1,1-1c17.563,0,21-7.7,21-21c0-0.553,0.447-1,1-1s1,0.447,1,1
	C55,46.199,51.152,55,32,55z"/>
<path style="fill:#FBD490;" d="M29,8c-2.206,0-4-1.794-4-4s1.794-4,4-4s4,1.794,4,4S31.206,8,29,8z M29,2c-1.103,0-2,0.897-2,2
	s0.897,2,2,2s2-0.897,2-2S30.103,2,29,2z"/>
<path style="fill:#FBD490;" d="M29,58c-2.206,0-4-1.794-4-4s1.794-4,4-4s4,1.794,4,4S31.206,58,29,58z M29,52c-1.103,0-2,0.897-2,2
	s0.897,2,2,2s2-0.897,2-2S30.103,52,29,52z"/>
<path style="fill:#FBD490;" d="M54,33c-2.206,0-4-1.794-4-4s1.794-4,4-4s4,1.794,4,4S56.206,33,54,33z M54,27c-1.103,0-2,0.897-2,2
	s0.897,2,2,2s2-0.897,2-2S55.103,27,54,27z"/>
<path style="fill:#FBD490;" d="M4,33c-2.206,0-4-1.794-4-4s1.794-4,4-4s4,1.794,4,4S6.206,33,4,33z M4,27c-1.103,0-2,0.897-2,2
	s0.897,2,2,2s2-0.897,2-2S5.103,27,4,27z"/>
<g>
</g>
<g>
</g>
<g>
</g>
<g>
</g>
<g>
</g>
<g>
</g>
<g>
</g>
<g>
</g>
<g>
</g>
<g>
</g>
<g>
</g>
<g>
</g>
<g>
</g>
<g>
</g>
<g>
</g>
</svg>
