<?xml version="1.0" encoding="iso-8859-1"?>
<!-- Generator: Adobe Illustrator 19.0.0, SVG Export Plug-In . SVG Version: 6.00 Build 0)  -->
<svg version="1.1" id="Capa_1" xmlns="http://www.w3.org/2000/svg" xmlns:xlink="http://www.w3.org/1999/xlink" x="0px" y="0px"
	 viewBox="0 0 59 59" style="enable-background:new 0 0 59 59;" xml:space="preserve">
<g>
	<path style="fill:#BDC3C7;" d="M13,0c-1.2,0-2.266,0.542-3,1.382C9.266,0.542,8.2,0,7,0C4.794,0,3,1.794,3,4s1.794,4,4,4
		c0.732,0,1.409-0.212,2-0.556V10h2V7.444C11.591,7.788,12.268,8,13,8c2.206,0,4-1.794,4-4S15.206,0,13,0z M7,6C5.897,6,5,5.103,5,4
		s0.897-2,2-2s2,0.897,2,2S8.103,6,7,6z M13,6c-1.103,0-2-0.897-2-2s0.897-2,2-2s2,0.897,2,2S14.103,6,13,6z"/>
	<path style="fill:#BDC3C7;" d="M35,0c-1.2,0-2.266,0.542-3,1.382C31.266,0.542,30.2,0,29,0c-2.206,0-4,1.794-4,4s1.794,4,4,4
		c0.732,0,1.409-0.212,2-0.556V11h2V7.444C33.591,7.788,34.268,8,35,8c2.206,0,4-1.794,4-4S37.206,0,35,0z M29,6
		c-1.103,0-2-0.897-2-2s0.897-2,2-2s2,0.897,2,2S30.103,6,29,6z M35,6c-1.103,0-2-0.897-2-2s0.897-2,2-2s2,0.897,2,2S36.103,6,35,6z
		"/>
</g>
<path style="fill:#546A79;" d="M12,16.929V14h1v-4H7v4h1v2.924c-4.006,0.911-7,4.485-7,8.768v30.29C1,57.649,2.351,59,4.018,59
	h11.964C17.649,59,19,57.649,19,55.982V26C19,21.688,16.069,17.879,12,16.929z"/>
<path style="fill:#546A79;" d="M34,16.929V14h1v-4h-6v4h1v2.924c-4.006,0.911-7,4.485-7,8.768v30.29C23,57.649,24.351,59,26.018,59
	h11.964C39.649,59,41,57.649,41,55.982V26C41,21.688,38.069,17.879,34,16.929z"/>
<rect x="1" y="32" style="fill:#26B99A;" width="18" height="14"/>
<line style="fill:none;stroke:#BDC3C7;stroke-width:2;stroke-miterlimit:10;" x1="8" y1="14" x2="12" y2="14"/>
<rect x="23" y="32" style="fill:#26B99A;" width="18" height="14"/>
<line style="fill:none;stroke:#BDC3C7;stroke-width:2;stroke-miterlimit:10;" x1="30" y1="14" x2="34" y2="14"/>
<rect x="19" y="26" style="fill:#95A5A5;" width="4" height="3"/>
<rect x="19" y="49" style="fill:#95A5A5;" width="4" height="3"/>
<line style="fill:none;stroke:#7F8C8D;stroke-width:2;stroke-miterlimit:10;" x1="13" y1="12" x2="29" y2="12"/>
<path style="fill:none;stroke:#7F8C8D;stroke-width:2;stroke-miterlimit:10;" d="M52,46V24v-3c0-4.975-4.025-9-9-9h-8"/>
<path style="fill:#546A79;" d="M57,50c0-1.298-0.84-2.399-2-2.815V47c0-1.65-1.35-3-3-3s-3,1.35-3,3v0.185
	c-1.16,0.416-2,1.517-2,2.815s0.84,2.399,2,2.815V53c0,1.65,1.35,3,3,3s3-1.35,3-3v-0.185C56.16,52.399,57,51.298,57,50z"/>
<circle style="fill:#BDC3C7;" cx="55" cy="39" r="3"/>
<path style="fill:#FFFFFF;" d="M52,53c-0.552,0-1-0.447-1-1v-4c0-0.553,0.448-1,1-1s1,0.447,1,1v4C53,52.553,52.552,53,52,53z"/>
<g>
</g>
<g>
</g>
<g>
</g>
<g>
</g>
<g>
</g>
<g>
</g>
<g>
</g>
<g>
</g>
<g>
</g>
<g>
</g>
<g>
</g>
<g>
</g>
<g>
</g>
<g>
</g>
<g>
</g>
</svg>
