<?xml version="1.0" encoding="iso-8859-1"?>
<!-- Generator: Adobe Illustrator 19.0.0, SVG Export Plug-In . SVG Version: 6.00 Build 0)  -->
<svg version="1.1" id="Capa_1" xmlns="http://www.w3.org/2000/svg" xmlns:xlink="http://www.w3.org/1999/xlink" x="0px" y="0px"
	 viewBox="0 0 60 60" style="enable-background:new 0 0 60 60;" xml:space="preserve">
<path style="fill:#BDC3C7;" d="M2.005,53.023l6.303,5.751c0.414,0.238,1.542,0.266,1.661,0.266h33.893
	c0.996,0,1.92-0.681,2.08-1.664c0.204-1.253-0.758-2.336-1.973-2.336h-34c-0.036,0-7.327-1.878-7.957-2.039
	C2,52.997,1.996,53.014,2.005,53.023z"/>
<circle style="fill:#F29C1F;stroke:#F0C419;stroke-width:2;stroke-linecap:round;stroke-linejoin:round;stroke-miterlimit:10;" cx="49" cy="11" r="7"/>
<line style="fill:none;stroke:#F0C419;stroke-width:2;stroke-linecap:round;stroke-linejoin:round;stroke-miterlimit:10;" x1="49" y1="4" x2="49" y2="1"/>
<line style="fill:none;stroke:#F0C419;stroke-width:2;stroke-linecap:round;stroke-linejoin:round;stroke-miterlimit:10;" x1="49" y1="21" x2="49" y2="18"/>
<line style="fill:none;stroke:#F0C419;stroke-width:2;stroke-linecap:round;stroke-linejoin:round;stroke-miterlimit:10;" x1="56" y1="11" x2="59" y2="11"/>
<line style="fill:none;stroke:#F0C419;stroke-width:2;stroke-linecap:round;stroke-linejoin:round;stroke-miterlimit:10;" x1="39" y1="11" x2="42" y2="11"/>
<line style="fill:none;stroke:#F0C419;stroke-width:2;stroke-linecap:round;stroke-linejoin:round;stroke-miterlimit:10;" x1="44.05" y1="6.05" x2="41.929" y2="3.929"/>
<line style="fill:none;stroke:#F0C419;stroke-width:2;stroke-linecap:round;stroke-linejoin:round;stroke-miterlimit:10;" x1="56.071" y1="18.071" x2="53.95" y2="15.95"/>
<line style="fill:none;stroke:#F0C419;stroke-width:2;stroke-linecap:round;stroke-linejoin:round;stroke-miterlimit:10;" x1="53.95" y1="6.05" x2="56.071" y2="3.929"/>
<line style="fill:none;stroke:#F0C419;stroke-width:2;stroke-linecap:round;stroke-linejoin:round;stroke-miterlimit:10;" x1="41.929" y1="18.071" x2="44.05" y2="15.95"/>
<path style="fill:#556080;" d="M59,60H1c-0.553,0-1-0.447-1-1s0.447-1,1-1h58c0.553,0,1,0.447,1,1S59.553,60,59,60z"/>
<path style="fill:#7F6E5D;" d="M18.004,55.04v-3.59l3.59,3.59h2.828l-6.747-6.747l-0.01,0.01c-0.177-0.159-0.406-0.262-0.662-0.262
	c-0.553,0-1,0.447-1,1v6H18.004z"/>
<path style="fill:#F4E6CE;" d="M31.169,9.14c-0.548-2.182-1.166-4.038-1.864-5.349c-0.515-0.967-1.867-1.066-2.533-0.196
	c-1.504,1.966-4.187,5.809-6.858,11.281l11.221-5.727C31.147,9.144,31.158,9.145,31.169,9.14z"/>
<path style="fill:#F0C419;" d="M33.706,25.032c-0.129-1.219-0.27-2.453-0.423-3.685l-18.795,8.27
	c-0.312,1.211-0.603,2.456-0.867,3.737l19.858-8.278C33.553,25.046,33.63,25.044,33.706,25.032z"/>
<path style="fill:#F0C419;" d="M34.652,36.073c-0.076-1.135-0.167-2.388-0.273-3.729l-22.005,9.221
	c-0.141,1.445-0.247,2.922-0.31,4.434l22.533-9.914C34.615,36.077,34.634,36.08,34.652,36.073z"/>
<path style="fill:#F4E6CE;" d="M12.905,49.038c3.359-0.201,15.206-1.269,21.611-6.544c0.31-0.255,0.471-0.642,0.451-1.043
	c-0.031-0.652-0.09-1.79-0.18-3.266L12.011,48.207C12.023,48.684,12.424,49.067,12.905,49.038z"/>
<path style="fill:#F0C419;" d="M31.635,11.14l-13.077,6.674c-0.471,1.076-0.933,2.204-1.383,3.38l15.042-7.059
	C32.034,13.101,31.841,12.097,31.635,11.14z"/>
<path style="fill:#F0C419;" d="M33.913,27.063l-20.744,8.647c-0.203,1.166-0.381,2.362-0.537,3.58l21.573-9.04
	C34.117,29.217,34.02,28.152,33.913,27.063z"/>
<path style="fill:#F0C419;" d="M32.561,16.183l-16.348,7.673c-0.361,1.058-0.709,2.15-1.039,3.276l17.843-7.851
	C32.873,18.234,32.721,17.199,32.561,16.183z"/>
<path style="fill:#0096E6;" d="M31.169,9.14c-0.011,0.005-0.023,0.004-0.034,0.009l-11.221,5.727
	c-0.455,0.931-0.908,1.913-1.356,2.938l13.077-6.674C31.486,10.446,31.33,9.781,31.169,9.14z"/>
<path style="fill:#ED7161;" d="M32.217,14.135l-15.042,7.059c-0.329,0.861-0.651,1.748-0.963,2.661l16.348-7.673
	C32.451,15.489,32.336,14.806,32.217,14.135z"/>
<path style="fill:#0096E6;" d="M33.016,19.281l-17.843,7.851c-0.238,0.811-0.467,1.64-0.685,2.486l18.795-8.27
	C33.197,20.657,33.109,19.967,33.016,19.281z"/>
<path style="fill:#ED7161;" d="M33.706,25.032c-0.076,0.012-0.153,0.014-0.228,0.045l-19.858,8.278
	c-0.16,0.774-0.312,1.556-0.452,2.355l20.744-8.647C33.847,26.392,33.779,25.715,33.706,25.032z"/>
<path style="fill:#0096E6;" d="M34.205,30.249l-21.573,9.04c-0.096,0.75-0.183,1.507-0.258,2.276l22.005-9.221
	C34.326,31.667,34.267,30.964,34.205,30.249z"/>
<path style="fill:#ED7161;" d="M34.598,36.085l-22.533,9.914c-0.03,0.718-0.05,1.442-0.061,2.174c0,0.012,0.006,0.022,0.007,0.034
	l22.777-10.022c-0.039-0.643-0.084-1.349-0.135-2.113C34.634,36.08,34.615,36.077,34.598,36.085z"/>
<g>
</g>
<g>
</g>
<g>
</g>
<g>
</g>
<g>
</g>
<g>
</g>
<g>
</g>
<g>
</g>
<g>
</g>
<g>
</g>
<g>
</g>
<g>
</g>
<g>
</g>
<g>
</g>
<g>
</g>
</svg>
