<?xml version="1.0" encoding="iso-8859-1"?>
<!-- Generator: Adobe Illustrator 19.0.0, SVG Export Plug-In . SVG Version: 6.00 Build 0)  -->
<svg version="1.1" id="Capa_1" xmlns="http://www.w3.org/2000/svg" xmlns:xlink="http://www.w3.org/1999/xlink" x="0px" y="0px"
	 viewBox="0 0 58 58" style="enable-background:new 0 0 58 58;" xml:space="preserve">
<path style="fill:#556080;" d="M45.19,58H9V0h36.19C47.294,0,49,1.706,49,3.81v50.38C49,56.294,47.294,58,45.19,58z"/>
<circle style="fill:none;stroke:#F0C419;stroke-width:2;stroke-linecap:round;stroke-miterlimit:10;" cx="29" cy="22" r="16"/>
<line style="fill:none;stroke:#F0C419;stroke-width:2;stroke-linecap:round;stroke-miterlimit:10;" x1="29" y1="38" x2="29" y2="6"/>
<path style="fill:none;stroke:#F0C419;stroke-width:2;stroke-linecap:round;stroke-miterlimit:10;" d="M29,6
	c-0.122,0-0.243,0.006-0.365,0.009C23.979,9.781,21,15.541,21,22s2.979,12.219,7.635,15.991C28.757,37.994,28.878,38,29,38"/>
<path style="fill:none;stroke:#F0C419;stroke-width:2;stroke-linecap:round;stroke-miterlimit:10;" d="M17.399,10.988
	c3.303,2.26,7.297,3.584,11.601,3.584s8.298-1.324,11.601-3.584"/>
<path style="fill:none;stroke:#F0C419;stroke-width:2;stroke-linecap:round;stroke-miterlimit:10;" d="M40.921,32.669
	c-3.364-2.397-7.476-3.811-11.921-3.811s-8.557,1.415-11.921,3.811"/>
<path style="fill:none;stroke:#F0C419;stroke-width:2;stroke-linecap:round;stroke-miterlimit:10;" d="M29,38
	c0.122,0,0.243-0.006,0.365-0.009C34.021,34.219,37,28.459,37,22S34.021,9.781,29.365,6.009C29.243,6.006,29.122,6,29,6"/>
<line style="fill:none;stroke:#F0C419;stroke-width:2;stroke-linecap:round;stroke-miterlimit:10;" x1="13" y1="22" x2="45" y2="22"/>
<line style="fill:none;stroke:#CBB292;stroke-width:2;stroke-linecap:round;stroke-miterlimit:10;" x1="14" y1="45" x2="44" y2="45"/>
<line style="fill:none;stroke:#CBB292;stroke-width:2;stroke-linecap:round;stroke-miterlimit:10;" x1="14" y1="50" x2="44" y2="50"/>
<g>
</g>
<g>
</g>
<g>
</g>
<g>
</g>
<g>
</g>
<g>
</g>
<g>
</g>
<g>
</g>
<g>
</g>
<g>
</g>
<g>
</g>
<g>
</g>
<g>
</g>
<g>
</g>
<g>
</g>
</svg>
