<?xml version="1.0" encoding="iso-8859-1"?>
<!-- Generator: Adobe Illustrator 19.0.0, SVG Export Plug-In . SVG Version: 6.00 Build 0)  -->
<svg version="1.1" id="Capa_1" xmlns="http://www.w3.org/2000/svg" xmlns:xlink="http://www.w3.org/1999/xlink" x="0px" y="0px"
	 viewBox="0 0 58 58" style="enable-background:new 0 0 58 58;" xml:space="preserve">
<g>
	<polygon style="fill:#FBD490;" points="55.051,15 51.835,3 7.051,15 	"/>
</g>
<path style="fill:#ECF0F1;" d="M0,15v4h3c0.553,0,1,0.447,1,1s-0.447,1-1,1H0v3h3c0.553,0,1,0.447,1,1s-0.447,1-1,1H0v3h3
	c0.553,0,1,0.447,1,1s-0.447,1-1,1H0v3h3c0.553,0,1,0.447,1,1s-0.447,1-1,1H0v3h3c0.553,0,1,0.447,1,1s-0.447,1-1,1H0v3h3
	c0.553,0,1,0.447,1,1s-0.447,1-1,1H0v3h3c0.553,0,1,0.447,1,1s-0.447,1-1,1H0v4h58V15H0z"/>
<path style="fill:#ED7161;" d="M4,50c0-0.553-0.447-1-1-1H0v2h3C3.553,51,4,50.553,4,50z"/>
<path style="fill:#48A0DC;" d="M4,45c0-0.553-0.447-1-1-1H0v2h3C3.553,46,4,45.553,4,45z"/>
<path style="fill:#ED7161;" d="M4,40c0-0.553-0.447-1-1-1H0v2h3C3.553,41,4,40.553,4,40z"/>
<path style="fill:#48A0DC;" d="M4,35c0-0.553-0.447-1-1-1H0v2h3C3.553,36,4,35.553,4,35z"/>
<path style="fill:#ED7161;" d="M4,30c0-0.553-0.447-1-1-1H0v2h3C3.553,31,4,30.553,4,30z"/>
<path style="fill:#48A0DC;" d="M4,25c0-0.553-0.447-1-1-1H0v2h3C3.553,26,4,25.553,4,25z"/>
<path style="fill:#ED7161;" d="M4,20c0-0.553-0.447-1-1-1H0v2h3C3.553,21,4,20.553,4,20z"/>
<line style="fill:none;stroke:#BDC3C7;stroke-width:2;stroke-miterlimit:10;" x1="29" y1="21" x2="29" y2="49"/>
<line style="fill:none;stroke:#BDC3C7;stroke-width:2;stroke-miterlimit:10;" x1="41" y1="44" x2="53" y2="44"/>
<line style="fill:none;stroke:#BDC3C7;stroke-width:2;stroke-miterlimit:10;" x1="39" y1="48" x2="53" y2="48"/>
<rect x="44" y="22" style="fill:#81CCB8;" width="8" height="8"/>
<g>
</g>
<g>
</g>
<g>
</g>
<g>
</g>
<g>
</g>
<g>
</g>
<g>
</g>
<g>
</g>
<g>
</g>
<g>
</g>
<g>
</g>
<g>
</g>
<g>
</g>
<g>
</g>
<g>
</g>
</svg>
