<?xml version="1.0" encoding="iso-8859-1"?>
<!-- Generator: Adobe Illustrator 19.0.0, SVG Export Plug-In . SVG Version: 6.00 Build 0)  -->
<svg version="1.1" id="Capa_1" xmlns="http://www.w3.org/2000/svg" xmlns:xlink="http://www.w3.org/1999/xlink" x="0px" y="0px"
	 viewBox="0 0 55 55" style="enable-background:new 0 0 55 55;" xml:space="preserve">
<rect x="0.5" y="50" style="fill:#546A79;" width="54" height="5"/>
<path style="fill:#38454F;" d="M51.5,50h-48v-3c3.866,0,7-3.134,7-7h34c0,3.866,3.134,7,7,7V50z"/>
<rect x="23.5" y="36" style="fill:#F29C1F;" width="8" height="4"/>
<path style="fill:#F0C419;" d="M10.5,36V24c0-9.35,7.65-17,17-17h0c9.35,0,17,7.65,17,17v12H10.5z"/>
<path style="fill:#EDE71B;" d="M14.5,25c-0.553,0-1-0.448-1-1c0-7.72,6.28-14,14-14c0.553,0,1,0.448,1,1s-0.447,1-1,1
	c-6.617,0-12,5.383-12,12C15.5,24.552,15.053,25,14.5,25z"/>
<polygon style="fill:#BDC3C7;" points="32.5,0 22.5,0 22.5,2 26.5,2 26.5,7 28.5,7 28.5,2 32.5,2 "/>
<g>
</g>
<g>
</g>
<g>
</g>
<g>
</g>
<g>
</g>
<g>
</g>
<g>
</g>
<g>
</g>
<g>
</g>
<g>
</g>
<g>
</g>
<g>
</g>
<g>
</g>
<g>
</g>
<g>
</g>
</svg>
