<?xml version="1.0" encoding="iso-8859-1"?>
<!-- Generator: Adobe Illustrator 19.0.0, SVG Export Plug-In . SVG Version: 6.00 Build 0)  -->
<svg version="1.1" id="Capa_1" xmlns="http://www.w3.org/2000/svg" xmlns:xlink="http://www.w3.org/1999/xlink" x="0px" y="0px"
	 viewBox="0 0 60 60" style="enable-background:new 0 0 60 60;" xml:space="preserve">
<path style="fill:#556080;" d="M36,49c-1.657,0-3-1.343-3-3c0,1.657-1.343,3-3,3s-3-1.343-3-3c0,1.657-1.343,3-3,3s-3-1.343-3-3
	c0,1.657-1.343,3-3,3s-3-1.343-3-3c0,1.657-1.343,3-3,3s-3-1.343-3-3v10h2c0-1.657,1.343-3,3-3s3,1.343,3,3h14c0-1.657,1.343-3,3-3
	s3,1.343,3,3h2V46C39,47.657,37.657,49,36,49z"/>
<path style="fill:#ECF0F1;stroke:#FFFFFF;stroke-width:2;stroke-linejoin:round;stroke-miterlimit:10;" d="M9,24v22
	c0,1.657,1.343,3,3,3s3-1.343,3-3c0,1.657,1.343,3,3,3s3-1.343,3-3c0,1.657,1.343,3,3,3s3-1.343,3-3c0,1.657,1.343,3,3,3
	s3-1.343,3-3c0,1.657,1.343,3,3,3s3-1.343,3-3V24H9z"/>
<line style="fill:#ECF0F1;stroke:#FFFFFF;stroke-width:2;stroke-linecap:round;stroke-miterlimit:10;" x1="15" y1="46" x2="15" y2="38"/>
<line style="fill:#ECF0F1;stroke:#FFFFFF;stroke-width:2;stroke-linecap:round;stroke-miterlimit:10;" x1="21" y1="46" x2="21" y2="41"/>
<line style="fill:#ECF0F1;stroke:#FFFFFF;stroke-width:2;stroke-linecap:round;stroke-miterlimit:10;" x1="27" y1="46" x2="27" y2="35"/>
<line style="fill:#ECF0F1;stroke:#FFFFFF;stroke-width:2;stroke-linecap:round;stroke-miterlimit:10;" x1="33" y1="46" x2="33" y2="41"/>
<path style="fill:#BDC3C7;stroke:#ECF0F1;stroke-width:2;stroke-miterlimit:10;" d="M10,21c0-7.732,6.268-14,14-14s14,6.268,14,14
	H10z"/>
<circle style="fill:none;stroke:#BDC3C7;stroke-width:2;stroke-miterlimit:10;" cx="24" cy="4" r="3"/>
<rect x="5" y="21" style="fill:#7F6E5D;" width="38" height="4"/>
<path style="fill:#546A79;" d="M54,11c-2.206,0-4,1.794-4,4c0,0.182,0.03,0.356,0.054,0.532L45.586,20H3c-0.552,0-1,0.448-1,1
	s0.448,1,1,1h43c0.13,0,0.26-0.027,0.382-0.077c0.122-0.051,0.233-0.124,0.325-0.216l4.201-4.201C51.642,18.41,52.748,19,54,19
	c2.206,0,4-1.794,4-4S56.206,11,54,11z M54,17c-1.103,0-2-0.897-2-2s0.897-2,2-2s2,0.897,2,2S55.103,17,54,17z"/>
<circle style="fill:#546A79;stroke:#BDC3C7;stroke-width:2;stroke-miterlimit:10;" cx="14" cy="56" r="3"/>
<circle style="fill:#546A79;stroke:#BDC3C7;stroke-width:2;stroke-miterlimit:10;" cx="34" cy="56" r="3"/>
<circle style="fill:#546A79;stroke:#BDC3C7;stroke-width:2;stroke-miterlimit:10;" cx="14" cy="56" r="3"/>
<circle style="fill:#546A79;stroke:#BDC3C7;stroke-width:2;stroke-miterlimit:10;" cx="34" cy="56" r="3"/>
<g>
</g>
<g>
</g>
<g>
</g>
<g>
</g>
<g>
</g>
<g>
</g>
<g>
</g>
<g>
</g>
<g>
</g>
<g>
</g>
<g>
</g>
<g>
</g>
<g>
</g>
<g>
</g>
<g>
</g>
</svg>
