<?xml version="1.0" encoding="iso-8859-1"?>
<!-- Generator: Adobe Illustrator 19.0.0, SVG Export Plug-In . SVG Version: 6.00 Build 0)  -->
<svg version="1.1" id="Capa_1" xmlns="http://www.w3.org/2000/svg" xmlns:xlink="http://www.w3.org/1999/xlink" x="0px" y="0px"
	 viewBox="0 0 56.798 56.798" style="enable-background:new 0 0 56.798 56.798;" xml:space="preserve">
<path style="fill:#7D6599;" d="M9.127,31.798l3.193,23.152c0.146,1.059,1.051,1.848,2.121,1.848h17.372
	c1.069,0,1.975-0.789,2.121-1.848l3.193-23.152H9.127z"/>
<path style="fill:#F4E6CE;" d="M35.127,21.798c-0.818,0-1.521,0.369-1.83,1.913c-0.038-0.983-0.391-1.913-2.17-1.913
	c-0.781,0-1.487,0.536-2.021,1.166c-0.109-3.426-2.288-6.166-4.979-6.166c-2.296,0-4.21,2.001-4.797,4.712
	c-0.632-0.538-1.388-0.855-2.203-0.855c-1.576,0-2.926,1.182-3.578,2.885c-0.545-0.965-1.424-1.599-2.422-1.599
	c-1.657,0-3,1.727-3,3.857h25h0.261h3.739C37.127,24.378,36.961,21.798,35.127,21.798z"/>
<path style="fill:#9777A8;" d="M46.052,35.407c-1.151-1.145-4.274-3.703-6.664-5.437V27.52c0-0.951-0.771-1.723-1.723-1.723H9.111
	c-0.951,0-1.723,0.771-1.723,1.723v2.555c0,0.951,0.771,1.723,1.723,1.723h28.555c0.232,0,0.453-0.047,0.656-0.131
	c2.273,1.658,5.248,4.091,6.32,5.158c4.248,4.229,2.983,9.469,0.011,12.547c-3,3.104-8.235,4.567-12.647,0.434
	c-1.956-1.833-3.422-3.839-4.246-5.084c1.515-0.607,2.59-2.083,2.59-3.812c0-2.267-1.844-4.111-4.11-4.111s-4.111,1.845-4.111,4.111
	c0,2.025,1.475,3.703,3.405,4.04c0.655,1.083,2.434,3.814,5.104,6.316c2.3,2.156,4.871,3.065,7.35,3.065
	c3.078,0,6.012-1.403,8.104-3.568C49.722,47.001,51.259,40.593,46.052,35.407z M24.128,40.909c0-1.164,0.947-2.111,2.111-2.111
	s2.11,0.947,2.11,2.111s-0.946,2.111-2.11,2.111S24.128,42.073,24.128,40.909z"/>
<path style="fill:#14A085;" d="M19.852,0.042c1.218-0.26,2.349,0.734,2.236,1.974c-0.302,3.302-2.544,6.394-5.817,7.093
	c-3.274,0.699-6.583-1.209-8.206-4.099C7.455,3.923,8.082,2.554,9.3,2.294L19.852,0.042z"/>
<g>
	<path style="fill:#24AE5F;" d="M17.127,20.655c0.815,0,1.571,0.317,2.203,0.855c0.235-1.085,0.69-2.047,1.289-2.822l-2.17-12.934
		l-4.89,1.044l2.414,14.079C16.339,20.734,16.725,20.655,17.127,20.655z"/>
</g>
<g>
</g>
<g>
</g>
<g>
</g>
<g>
</g>
<g>
</g>
<g>
</g>
<g>
</g>
<g>
</g>
<g>
</g>
<g>
</g>
<g>
</g>
<g>
</g>
<g>
</g>
<g>
</g>
<g>
</g>
</svg>
