<?xml version="1.0" encoding="iso-8859-1"?>
<!-- Generator: Adobe Illustrator 19.0.0, SVG Export Plug-In . SVG Version: 6.00 Build 0)  -->
<svg version="1.1" id="Capa_1" xmlns="http://www.w3.org/2000/svg" xmlns:xlink="http://www.w3.org/1999/xlink" x="0px" y="0px"
	 viewBox="0 0 59 59" style="enable-background:new 0 0 59 59;" xml:space="preserve">
<rect x="2.5" y="24" style="fill:#F4E6CE;" width="16" height="35"/>
<rect x="40.5" y="24" style="fill:#F4E6CE;" width="16" height="35"/>
<polygon style="fill:#ECF0F1;" points="16.5,15 16.5,19 12.5,19 12.5,15 8.5,15 8.5,19 4.5,19 4.5,15 0.5,15 0.5,24 20.5,24 
	20.5,15 "/>
<polygon style="fill:#ECF0F1;" points="54.5,15 54.5,19 50.5,19 50.5,15 46.5,15 46.5,19 42.5,19 42.5,15 38.5,15 38.5,24 58.5,24 
	58.5,15 "/>
<polygon style="fill:#ECF0F1;" points="35.5,32 35.5,27 35.5,23 31.5,23 31.5,27 27.5,27 27.5,23 23.5,23 23.5,32 18.5,32 18.5,59 
	40.5,59 40.5,32 "/>
<path style="fill:#FBD490;" d="M35.5,59h-12V43c0-3.314,2.686-6,6-6h0c3.314,0,6,2.686,6,6V59z"/>
<path style="fill:#FBD490;" d="M14.5,59h-8V48c0-2.209,1.791-4,4-4h0c2.209,0,4,1.791,4,4V59z"/>
<path style="fill:#FBD490;" d="M52.5,59h-8V48c0-2.209,1.791-4,4-4h0c2.209,0,4,1.791,4,4V59z"/>
<path style="fill:#A4E869;" d="M10.5,1l9,4c0.04,0.017,0.04,0.074,0,0.091L10.5,9V1z"/>
<path style="fill:#ED7161;" d="M48.5,1l8.97,4c0.04,0.017,0.04,0.074,0,0.091L48.5,9V1z"/>
<rect x="6.5" y="30" style="fill:#FBD490;" width="8" height="7"/>
<rect x="44.5" y="30" style="fill:#FBD490;" width="8" height="7"/>
<path style="fill:#546A79;" d="M49.5,15V1c0-0.552-0.447-1-1-1s-1,0.448-1,1v14H49.5z"/>
<path style="fill:#546A79;" d="M11.5,15V1c0-0.552-0.447-1-1-1s-1,0.448-1,1v14H11.5z"/>
<g>
</g>
<g>
</g>
<g>
</g>
<g>
</g>
<g>
</g>
<g>
</g>
<g>
</g>
<g>
</g>
<g>
</g>
<g>
</g>
<g>
</g>
<g>
</g>
<g>
</g>
<g>
</g>
<g>
</g>
</svg>
