<?xml version="1.0" encoding="iso-8859-1"?>
<!-- Generator: Adobe Illustrator 19.0.0, SVG Export Plug-In . SVG Version: 6.00 Build 0)  -->
<svg version="1.1" id="Capa_1" xmlns="http://www.w3.org/2000/svg" xmlns:xlink="http://www.w3.org/1999/xlink" x="0px" y="0px"
	 viewBox="0 0 58 58" style="enable-background:new 0 0 58 58;" xml:space="preserve">
<path style="fill:#546A79;" d="M0,0v46c0,6.065,4.935,11,11,11h11.053C22.034,56.913,22,56.831,22,56.738v-5.475
	c0-0.093,0.034-0.175,0.053-0.262H11c-2.757,0-5-2.243-5-5V0H0z"/>
<path style="fill:#F29C1F;" d="M58,30v-4.834C58,19.552,53.448,15,47.834,15h-3.999H24.154h-3.988C14.552,15,10,19.552,10,25.166
	v1.745c0,0.03-0.006,0.058,0.025,0.526v7.904c-0.065,0.497,0.066,2.937,2.073,5.155C14.202,42.821,17.529,44,22.064,44
	c0.001,0,0.003,0,0.004,0c4.245-0.079,8.71-1.581,11.122-4.655c0.418-0.532,1.19-0.532,1.607,0C37.21,42.418,41.675,43.921,45.92,44
	c0.024,0,0.05,0,0.074,0c4.462,0,7.792-1.179,9.896-3.503c2.007-2.218,2.139-4.658,2.104-5.592V30H58z"/>
<path style="fill:#E6E6E6;" d="M32.994,19h-8.84c-2.159,0-4.312,0.508-6.16,1.625c-2,1.208-4,3.208-4,6.375v8c0,0-0.5,5,8,5
	c0,0,9-0.167,9-6H31c0-1.657,1.343-3,3-3s3,1.343,3,3h-0.006c0,5.833,9,6,9,6c8.5,0,8-5,8-5v-8c0-3.167-2-5.167-4-6.375
	c-1.848-1.117-4-1.625-6.16-1.625h-8.84H32.994z"/>
<rect style="fill:#E1705C;" width="6" height="9"/>
<path style="fill:#38454F;" d="M34.738,58H23.262C22.565,58,22,57.435,22,56.738v-5.475C22,50.565,22.565,50,23.262,50h11.475
	C35.435,50,36,50.565,36,51.262v5.475C36,57.435,35.435,58,34.738,58z"/>
<path style="fill:#FFFFFF;" d="M19,29c-0.256,0-0.512-0.098-0.707-0.293c-0.391-0.391-0.391-1.023,0-1.414l4-4
	c0.391-0.391,1.023-0.391,1.414,0s0.391,1.023,0,1.414l-4,4C19.512,28.902,19.256,29,19,29z"/>
<path style="fill:#FFFFFF;" d="M23,32c-0.256,0-0.512-0.098-0.707-0.293c-0.391-0.391-0.391-1.023,0-1.414l7-7
	c0.391-0.391,1.023-0.391,1.414,0s0.391,1.023,0,1.414l-7,7C23.512,31.902,23.256,32,23,32z"/>
<rect x="6" y="28" style="fill:#BDC3C7;" width="4" height="4"/>
<g>
</g>
<g>
</g>
<g>
</g>
<g>
</g>
<g>
</g>
<g>
</g>
<g>
</g>
<g>
</g>
<g>
</g>
<g>
</g>
<g>
</g>
<g>
</g>
<g>
</g>
<g>
</g>
<g>
</g>
</svg>
