<?xml version="1.0" encoding="iso-8859-1"?>
<!-- Generator: Adobe Illustrator 19.0.0, SVG Export Plug-In . SVG Version: 6.00 Build 0)  -->
<svg version="1.1" id="Capa_1" xmlns="http://www.w3.org/2000/svg" xmlns:xlink="http://www.w3.org/1999/xlink" x="0px" y="0px"
	 viewBox="0 0 55 55" style="enable-background:new 0 0 55 55;" xml:space="preserve">
<path style="fill:#38454F;" d="M32,54c-0.419,0-0.809-0.265-0.949-0.684l-2.001-6c-0.175-0.524,0.108-1.09,0.632-1.265
	c0.522-0.176,1.09,0.107,1.265,0.632l2.001,6c0.175,0.524-0.108,1.09-0.632,1.265C32.211,53.983,32.105,54,32,54z"/>
<path style="fill:#38454F;" d="M24,54c-0.104,0-0.211-0.017-0.316-0.052c-0.524-0.174-0.808-0.74-0.633-1.265l1.999-6
	c0.174-0.523,0.742-0.809,1.265-0.632c0.524,0.174,0.808,0.74,0.633,1.265l-1.999,6C24.809,53.735,24.419,54,24,54z"/>
<path style="fill:#546A79;" d="M40.783,26.642c-0.87,0-1.739-0.041-2.603-0.123c-2.272-0.215-4.425-1.117-6.263-2.469l0,0
	c-1.399-2.355-3.051-4.83-4.01-6.042h-0.811c-0.959,1.212-2.61,3.687-4.01,6.042l0,0c-1.838,1.352-3.991,2.254-6.263,2.469
	c-0.864,0.082-1.733,0.123-2.603,0.123c-4.1,0-7.343-0.923-8.911-1.473c-1.795-0.629-3.251-1.883-4.099-3.529
	C-1.358,16.657,0.8,9.564,1.847,6.747C2.234,5.68,3.033,4.809,4.087,4.32C10.538,1.324,22.05,1,26.699,1
	c0.654,0,1.024,0.008,1.024,0.008c0.589,0.004,15.244,0.164,22.968,3.225c1.141,0.449,2.045,1.375,2.473,2.537
	c1.041,2.812,3.189,9.901,0.628,14.871c-0.847,1.645-2.303,2.898-4.099,3.528C48.126,25.719,44.883,26.642,40.783,26.642
	L40.783,26.642z"/>
<path style="fill:#D0E8F9;" d="M49.411,8.151c-0.034-0.092-0.101-0.164-0.192-0.2C42.102,5.13,27.646,5.007,27.646,5.007
	S12.723,4.719,5.772,7.948c-0.082,0.038-0.143,0.105-0.175,0.19c-0.382,1.03-2.791,7.875-0.828,11.675
	c0.386,0.748,1.065,1.3,1.859,1.579c1.963,0.689,6.679,1.953,12.406,0.752c0.388-0.081,0.724-0.324,0.93-0.663
	c1.083-1.78,4.629-7.475,5.683-7.475h2h1.71c1.055,0,4.601,5.695,5.683,7.475c0.206,0.339,0.542,0.581,0.93,0.663
	c5.726,1.201,10.443-0.063,12.406-0.752c0.794-0.279,1.472-0.831,1.859-1.579C52.189,16.028,49.808,9.224,49.411,8.151z"/>
<path style="fill:#FFFFFF;" d="M8.646,14.642c-0.256,0-0.512-0.098-0.707-0.293c-0.391-0.391-0.391-1.023,0-1.414l4-4
	c0.391-0.391,1.023-0.391,1.414,0s0.391,1.023,0,1.414l-4,4C9.158,14.544,8.902,14.642,8.646,14.642z"/>
<path style="fill:#FFFFFF;" d="M12.646,17.642c-0.256,0-0.512-0.098-0.707-0.293c-0.391-0.391-0.391-1.023,0-1.414l7-7
	c0.391-0.391,1.023-0.391,1.414,0s0.391,1.023,0,1.414l-7,7C13.158,17.544,12.902,17.642,12.646,17.642z"/>
<path style="fill:#38454F;" d="M21.138,36.718c0-0.628,0.183-1.21,0.481-1.718h-1.849c-7.115,0-3.165-1.357-9.77-4l-0.001,0v4l0,0
	c6.606,2.642,2.656,4,9.771,4h2.26C21.482,38.392,21.138,37.596,21.138,36.718z"/>
<path style="fill:#38454F;" d="M34.86,36.718c0-0.628-0.183-1.21-0.481-1.718h1.849c7.115,0,3.165-1.357,9.77-4L46,31v4l0,0
	c-6.606,2.642-2.656,4-9.771,4h-2.26C34.516,38.392,34.86,37.596,34.86,36.718z"/>
<path style="fill:#546A79;" d="M31.871,32.309C31.101,30.904,29.62,30,27.999,30s-3.102,0.904-3.872,2.309
	c-1.014,0.101-1.956,0.546-2.689,1.279c-0.839,0.839-1.301,1.95-1.3,3.131c0.001,2.625,2.175,3.774,3.861,4.145v3.484
	c0,2.014,1.639,3.652,3.653,3.652h0.695c2.014,0,3.652-1.639,3.652-3.652v-3.464c1.693-0.337,3.861-1.463,3.861-4.166
	C35.86,34.424,34.108,32.531,31.871,32.309z"/>
<path style="fill:#F0C419;" d="M30.999,38h-6c-0.552,0-1-0.447-1-1s0.448-1,1-1h6c0.552,0,1,0.447,1,1S31.551,38,30.999,38z"/>
<path style="fill:#38454F;" d="M31.917,24.049L31.917,24.049c-1.399-2.355-3.051-4.83-4.01-6.042h-0.811
	c-0.959,1.212-2.61,3.687-4.01,6.042c-0.35,0.258-0.715,0.493-1.087,0.716c1.02,1.1,2.998,2.234,5.647,2.234
	c2.733,0,4.409-1.189,5.359-2.233C32.633,24.543,32.268,24.307,31.917,24.049z"/>
<g>
</g>
<g>
</g>
<g>
</g>
<g>
</g>
<g>
</g>
<g>
</g>
<g>
</g>
<g>
</g>
<g>
</g>
<g>
</g>
<g>
</g>
<g>
</g>
<g>
</g>
<g>
</g>
<g>
</g>
</svg>
