<?xml version="1.0" encoding="iso-8859-1"?>
<!-- Generator: Adobe Illustrator 19.0.0, SVG Export Plug-In . SVG Version: 6.00 Build 0)  -->
<svg version="1.1" id="Capa_1" xmlns="http://www.w3.org/2000/svg" xmlns:xlink="http://www.w3.org/1999/xlink" x="0px" y="0px"
	 viewBox="0 0 54.12 54.12" style="enable-background:new 0 0 54.12 54.12;" xml:space="preserve">
<path style="fill:#FBD490;" d="M27.518,1.584l5.606,11.359c1.552,3.145,4.552,5.324,8.022,5.828l12.536,1.822
	c0.419,0.061,0.586,0.576,0.283,0.871l-9.071,8.842c-2.511,2.448-3.657,5.974-3.064,9.43l2.141,12.485
	c0.072,0.417-0.366,0.735-0.741,0.538l-11.212-5.895c-3.104-1.632-6.812-1.632-9.916,0L10.89,52.761
	c-0.375,0.197-0.813-0.121-0.741-0.538l2.141-12.485c0.593-3.456-0.553-6.983-3.064-9.43l-9.071-8.842
	c-0.303-0.295-0.136-0.81,0.283-0.871l12.536-1.822c3.47-0.504,6.47-2.684,8.022-5.828l5.606-11.359
	C26.789,1.204,27.331,1.204,27.518,1.584z"/>
<circle style="fill:#FBD490;stroke:#F4E6CE;stroke-width:2;stroke-miterlimit:10;" cx="27.06" cy="28.725" r="5"/>
<circle style="fill:#F4E6CE;" cx="27.06" cy="19.725" r="1"/>
<circle style="fill:#F4E6CE;" cx="27.06" cy="15.725" r="1"/>
<circle style="fill:#F4E6CE;" cx="27.06" cy="11.725" r="1"/>
<circle style="fill:#F4E6CE;" cx="27.06" cy="7.725" r="1"/>
<circle style="fill:#F4E6CE;" cx="47.292" cy="22.499" r="1"/>
<circle style="fill:#F4E6CE;" cx="43.548" cy="23.908" r="1"/>
<circle style="fill:#F4E6CE;" cx="39.804" cy="25.316" r="1"/>
<circle style="fill:#F4E6CE;" cx="36.06" cy="26.725" r="1"/>
<circle style="fill:#F4E6CE;" cx="14.67" cy="46.18" r="1"/>
<circle style="fill:#F4E6CE;" cx="17.133" cy="43.028" r="1"/>
<circle style="fill:#F4E6CE;" cx="19.597" cy="39.877" r="1"/>
<circle style="fill:#F4E6CE;" cx="22.06" cy="36.725" r="1"/>
<circle style="fill:#F4E6CE;" cx="39.45" cy="46.18" r="1"/>
<circle style="fill:#F4E6CE;" cx="36.987" cy="43.028" r="1"/>
<circle style="fill:#F4E6CE;" cx="34.523" cy="39.877" r="1"/>
<circle style="fill:#F4E6CE;" cx="32.06" cy="36.725" r="1"/>
<circle style="fill:#F4E6CE;" cx="6.829" cy="22.499" r="1"/>
<circle style="fill:#F4E6CE;" cx="10.572" cy="23.908" r="1"/>
<circle style="fill:#F4E6CE;" cx="14.316" cy="25.316" r="1"/>
<circle style="fill:#F4E6CE;" cx="18.06" cy="26.725" r="1"/>
<g>
</g>
<g>
</g>
<g>
</g>
<g>
</g>
<g>
</g>
<g>
</g>
<g>
</g>
<g>
</g>
<g>
</g>
<g>
</g>
<g>
</g>
<g>
</g>
<g>
</g>
<g>
</g>
<g>
</g>
</svg>
