<?xml version="1.0" encoding="iso-8859-1"?>
<!-- Generator: Adobe Illustrator 19.0.0, SVG Export Plug-In . SVG Version: 6.00 Build 0)  -->
<svg version="1.1" id="Capa_1" xmlns="http://www.w3.org/2000/svg" xmlns:xlink="http://www.w3.org/1999/xlink" x="0px" y="0px"
	 viewBox="0 0 58 58" style="enable-background:new 0 0 58 58;" xml:space="preserve">
<path style="fill:#F0C419;" d="M58,5.5c0-1.657-1.343-3-3-3s-3,1.343-3,3c0-1.657-1.343-3-3-3s-3,1.343-3,3c0-1.657-1.343-3-3-3
	s-3,1.343-3,3c0-1.657-1.343-3-3-3s-3,1.343-3,3c0-1.657-1.343-3-3-3s-3,1.343-3,3h-0.028l0.073,0.45
	c0.011,0.074,0.02,0.149,0.036,0.221L35,45.5h15l7.811-38.981C57.926,6.199,58,5.859,58,5.5z"/>
<path style="fill:#4482C3;" d="M20.048,55.5H3.952C1.769,55.5,0,53.731,0,51.548V24.452C0,22.269,1.769,20.5,3.952,20.5h16.096
	c2.183,0,3.952,1.769,3.952,3.952v27.096C24,53.731,22.231,55.5,20.048,55.5z"/>
<path style="fill:#EDE71B;" d="M20,36.5h-2.09c-0.154-0.909-0.51-1.749-1.024-2.471l1.479-1.479c0.391-0.391,0.391-1.023,0-1.414
	s-1.024-0.391-1.414,0l-1.479,1.479C14.749,32.1,13.909,31.744,13,31.59V29.5c0-0.553-0.448-1-1-1s-1,0.447-1,1v2.09
	c-0.909,0.154-1.749,0.51-2.471,1.025L7.05,31.136c-0.39-0.391-1.023-0.391-1.414,0s-0.391,1.023,0,1.414l1.479,1.479
	C6.6,34.751,6.244,35.591,6.09,36.5H4c-0.552,0-1,0.447-1,1s0.448,1,1,1h2.09c0.154,0.909,0.51,1.749,1.024,2.471L5.636,42.45
	c-0.391,0.391-0.391,1.023,0,1.414c0.195,0.195,0.451,0.293,0.707,0.293s0.512-0.098,0.707-0.293l1.479-1.479
	C9.251,42.9,10.091,43.256,11,43.41v2.09c0,0.553,0.448,1,1,1s1-0.447,1-1v-2.09c0.909-0.154,1.749-0.51,2.471-1.025l1.479,1.479
	c0.195,0.195,0.451,0.293,0.707,0.293s0.512-0.098,0.707-0.293c0.391-0.391,0.391-1.023,0-1.414l-1.479-1.479
	c0.515-0.722,0.871-1.562,1.024-2.471H20c0.552,0,1-0.447,1-1S20.552,36.5,20,36.5z M12,41.5c-2.206,0-4-1.794-4-4s1.794-4,4-4
	s4,1.794,4,4S14.206,41.5,12,41.5z"/>
<path style="fill:#E57E25;" d="M51,23.5h-2.09c-0.154-0.909-0.51-1.749-1.024-2.471l1.479-1.479c0.391-0.391,0.391-1.023,0-1.414
	s-1.024-0.391-1.414,0l-1.479,1.479C45.749,19.1,44.909,18.744,44,18.59V16.5c0-0.553-0.448-1-1-1s-1,0.447-1,1v2.09
	c-0.909,0.154-1.749,0.51-2.471,1.025l-1.479-1.479c-0.39-0.391-1.023-0.391-1.414,0s-0.391,1.023,0,1.414l1.479,1.479
	c-0.515,0.722-0.871,1.562-1.024,2.471H35c-0.552,0-1,0.447-1,1s0.448,1,1,1h2.09c0.154,0.909,0.51,1.749,1.024,2.471l-1.479,1.479
	c-0.391,0.391-0.391,1.023,0,1.414c0.195,0.195,0.451,0.293,0.707,0.293s0.512-0.098,0.707-0.293l1.479-1.479
	C40.251,29.9,41.091,30.256,42,30.41v2.09c0,0.553,0.448,1,1,1s1-0.447,1-1v-2.09c0.909-0.154,1.749-0.51,2.471-1.025l1.479,1.479
	c0.195,0.195,0.451,0.293,0.707,0.293s0.512-0.098,0.707-0.293c0.391-0.391,0.391-1.023,0-1.414l-1.479-1.479
	c0.515-0.722,0.871-1.562,1.024-2.471H51c0.552,0,1-0.447,1-1S51.552,23.5,51,23.5z M43,28.5c-2.206,0-4-1.794-4-4s1.794-4,4-4
	s4,1.794,4,4S45.206,28.5,43,28.5z"/>
<rect x="35" y="45.5" style="fill:#ECF0F1;" width="15" height="10"/>
<rect x="8" y="14.5" style="fill:#E57E25;" width="8" height="2"/>
<rect x="8" y="16.5" style="fill:#285680;" width="8" height="4"/>
<rect x="8" y="9.5" style="fill:#F29C1F;" width="8" height="5"/>
<circle style="fill:#FFFFFF;" cx="12" cy="12.5" r="1"/>
<polygon style="fill:#E57E25;" points="28.843,10.5 57.013,10.5 57.414,8.5 28.491,8.5 "/>
<rect x="35" y="49.5" style="fill:#BDC3C7;" width="15" height="2"/>
<g>
</g>
<g>
</g>
<g>
</g>
<g>
</g>
<g>
</g>
<g>
</g>
<g>
</g>
<g>
</g>
<g>
</g>
<g>
</g>
<g>
</g>
<g>
</g>
<g>
</g>
<g>
</g>
<g>
</g>
</svg>
