<?xml version="1.0" encoding="iso-8859-1"?>
<!-- Generator: Adobe Illustrator 19.0.0, SVG Export Plug-In . SVG Version: 6.00 Build 0)  -->
<svg version="1.1" id="Capa_1" xmlns="http://www.w3.org/2000/svg" xmlns:xlink="http://www.w3.org/1999/xlink" x="0px" y="0px"
	 viewBox="0 0 60 60" style="enable-background:new 0 0 60 60;" xml:space="preserve">
<line style="fill:none;stroke:#7F8C8D;stroke-width:2;stroke-miterlimit:10;" x1="22" y1="19.556" x2="38" y2="19.556"/>
<path style="fill:none;stroke:#7F8C8D;stroke-width:2;stroke-miterlimit:10;" d="M33,25.556c-1.563-1.563-4.437-1.563-6,0"/>
<line style="fill:none;stroke:#7F8C8D;stroke-width:2;stroke-linecap:round;stroke-miterlimit:10;" x1="1" y1="24.556" x2="3" y2="24.556"/>
<line style="fill:none;stroke:#7F8C8D;stroke-width:2;stroke-linecap:round;stroke-miterlimit:10;" x1="57" y1="24.556" x2="59" y2="24.556"/>
<path style="fill:#556080;stroke:#2F3C5E;stroke-width:2;stroke-miterlimit:10;" d="M16,19.556h-5.511c-1.552,0-3.101,0.306-4.489,1
	c-1.5,0.75-3,2-3,4v9c0,0,0.267,4.983,5.531,6.541c1.833,0.542,3.794,0.424,5.608-0.178C18.283,38.542,27,34.893,27,28.556
	c0,0,0.875-9-5-9H16z"/>
<path style="fill:#556080;stroke:#2F3C5E;stroke-width:2;stroke-miterlimit:10;" d="M44.046,19.556h5.511
	c1.552,0,3.101,0.306,4.489,1c1.5,0.75,3,2,3,4v9c0,0-0.267,4.983-5.531,6.541c-1.833,0.542-3.794,0.424-5.608-0.178
	c-4.144-1.377-12.861-5.026-12.861-11.363c0,0-0.875-9,5-9H44.046z"/>
<line style="fill:none;stroke:#8697CB;stroke-width:2;stroke-linecap:round;stroke-miterlimit:10;" x1="7" y1="27.556" x2="11" y2="23.556"/>
<line style="fill:none;stroke:#8697CB;stroke-width:2;stroke-linecap:round;stroke-miterlimit:10;" x1="11" y1="30.556" x2="18" y2="23.556"/>
<line style="fill:none;stroke:#8697CB;stroke-width:2;stroke-linecap:round;stroke-miterlimit:10;" x1="37" y1="27.556" x2="41" y2="23.556"/>
<line style="fill:none;stroke:#8697CB;stroke-width:2;stroke-linecap:round;stroke-miterlimit:10;" x1="41" y1="30.556" x2="48" y2="23.556"/>
<g>
</g>
<g>
</g>
<g>
</g>
<g>
</g>
<g>
</g>
<g>
</g>
<g>
</g>
<g>
</g>
<g>
</g>
<g>
</g>
<g>
</g>
<g>
</g>
<g>
</g>
<g>
</g>
<g>
</g>
</svg>
