<?xml version="1.0" encoding="iso-8859-1"?>
<!-- Generator: Adobe Illustrator 19.0.0, SVG Export Plug-In . SVG Version: 6.00 Build 0)  -->
<svg version="1.1" id="Capa_1" xmlns="http://www.w3.org/2000/svg" xmlns:xlink="http://www.w3.org/1999/xlink" x="0px" y="0px"
	 viewBox="0 0 57.96 57.96" style="enable-background:new 0 0 57.96 57.96;" xml:space="preserve">
<path style="fill:#67B9CC;" d="M48.992,14.949c0,0-3.147,2.341-14.747,2.905c1.085,1.526,1.375,3.148,0.577,3.945
	c-0.976,0.976-3.192,0.343-4.95-1.414c-0.765-0.765-1.301-1.614-1.6-2.413c-0.158-0.001-0.317-0.001-0.473-0.003
	c-0.294,0.815-0.838,1.685-1.621,2.468c-1.757,1.757-3.973,2.391-4.95,1.414c-0.825-0.825-0.49-2.534,0.69-4.105
	c-10.111-0.705-12.928-2.797-12.928-2.797L0,36.901c0.001,0.083,0.002,0.153,0.004,0.236C0.562,38.27,5.398,47.29,18.137,47.98
	c1.095,0.059,2.143-0.482,2.732-1.408l8.04-9.596c0.039-0.061,0.127-0.061,0.166,0l8.016,9.572c0.589,0.925,1.637,1.467,2.732,1.408
	c12.739-0.689,17.575-9.71,18.134-10.843c0.001-0.083,0.002-0.153,0.004-0.236L48.992,14.949z"/>
<circle style="fill:none;stroke:#A4E869;stroke-width:2;stroke-linecap:round;stroke-linejoin:round;stroke-miterlimit:10;" cx="44.992" cy="33.976" r="5"/>
<line style="fill:none;stroke:#A4E869;stroke-width:2;stroke-linecap:round;stroke-linejoin:round;stroke-miterlimit:10;" x1="44.992" y1="28.976" x2="44.992" y2="26.976"/>
<line style="fill:none;stroke:#A4E869;stroke-width:2;stroke-linecap:round;stroke-linejoin:round;stroke-miterlimit:10;" x1="44.992" y1="40.976" x2="44.992" y2="38.976"/>
<line style="fill:none;stroke:#A4E869;stroke-width:2;stroke-linecap:round;stroke-linejoin:round;stroke-miterlimit:10;" x1="49.992" y1="33.976" x2="51.992" y2="33.976"/>
<line style="fill:none;stroke:#A4E869;stroke-width:2;stroke-linecap:round;stroke-linejoin:round;stroke-miterlimit:10;" x1="37.992" y1="33.976" x2="39.992" y2="33.976"/>
<line style="fill:none;stroke:#A4E869;stroke-width:2;stroke-linecap:round;stroke-linejoin:round;stroke-miterlimit:10;" x1="41.457" y1="30.441" x2="40.042" y2="29.026"/>
<line style="fill:none;stroke:#A4E869;stroke-width:2;stroke-linecap:round;stroke-linejoin:round;stroke-miterlimit:10;" x1="49.942" y1="38.926" x2="48.528" y2="37.512"/>
<line style="fill:none;stroke:#A4E869;stroke-width:2;stroke-linecap:round;stroke-linejoin:round;stroke-miterlimit:10;" x1="48.528" y1="30.441" x2="49.942" y2="29.026"/>
<line style="fill:none;stroke:#A4E869;stroke-width:2;stroke-linecap:round;stroke-linejoin:round;stroke-miterlimit:10;" x1="40.042" y1="38.926" x2="41.457" y2="37.512"/>
<g>
	<path style="fill:#A4E869;" d="M22.644,16.901c1.757-1.757,3.973-2.391,4.95-1.414c0.235,0.235,0.372,0.545,0.427,0.9
		c0.049-0.378,0.191-0.705,0.438-0.952c0.976-0.976,3.192-0.343,4.95,1.414c0.323,0.323,0.593,0.662,0.837,1.005
		c11.6-0.564,14.747-2.905,14.747-2.905L47,9.976c0,0-2.07,2-18.008,2S11,9.976,11,9.976l-2.008,4.973c0,0,2.817,2.092,12.928,2.797
		C22.136,17.458,22.371,17.173,22.644,16.901z"/>
</g>
<path style="fill:none;stroke:#546A79;stroke-width:2;stroke-linecap:round;stroke-miterlimit:10;" d="M30.427,24.976
	c-1.91-1.114-3.114-4.09-2-6"/>
<path style="fill:none;stroke:#546A79;stroke-width:2;stroke-linecap:round;stroke-miterlimit:10;" d="M27.055,27.976
	c-2.102-0.35-0.79-7.001,0.945-8"/>
<ellipse transform="matrix(0.7071 0.7071 -0.7071 0.7071 20.3509 -11.7934)" style="fill:#67B9CC;stroke:#546A79;stroke-width:2;stroke-linejoin:round;stroke-miterlimit:10;" cx="24.411" cy="18.669" rx="2.5" ry="4.5"/>
<ellipse transform="matrix(-0.7071 0.7071 -0.7071 -0.7071 67.1782 9.4077)" style="fill:#67B9CC;stroke:#546A79;stroke-width:2;stroke-linejoin:round;stroke-miterlimit:10;" cx="31.641" cy="18.617" rx="2.5" ry="4.5"/>
<g>
</g>
<g>
</g>
<g>
</g>
<g>
</g>
<g>
</g>
<g>
</g>
<g>
</g>
<g>
</g>
<g>
</g>
<g>
</g>
<g>
</g>
<g>
</g>
<g>
</g>
<g>
</g>
<g>
</g>
</svg>
