<?xml version="1.0" encoding="iso-8859-1"?>
<!-- Generator: Adobe Illustrator 19.0.0, SVG Export Plug-In . SVG Version: 6.00 Build 0)  -->
<svg version="1.1" id="Capa_1" xmlns="http://www.w3.org/2000/svg" xmlns:xlink="http://www.w3.org/1999/xlink" x="0px" y="0px"
	 viewBox="0 0 60 60" style="enable-background:new 0 0 60 60;" xml:space="preserve">
<rect y="26.225" style="fill:#D0E8F9;" width="60" height="29"/>
<path style="fill:none;stroke:#0096E6;stroke-width:2;stroke-linecap:round;stroke-miterlimit:10;" d="M58,44.225
	c-2.211,2.736-5.789,2.736-8,0"/>
<path style="fill:none;stroke:#0096E6;stroke-width:2;stroke-linecap:round;stroke-miterlimit:10;" d="M41,39.121
	c-2.211,2.736-5.789,2.736-8,0"/>
<path style="fill:none;stroke:#0096E6;stroke-width:2;stroke-linecap:round;stroke-miterlimit:10;" d="M33,45.173
	c-2.211,2.736-5.789,2.736-8,0"/>
<path style="fill:none;stroke:#0096E6;stroke-width:2;stroke-linecap:round;stroke-miterlimit:10;" d="M19,50.121
	c-2.211,2.736-5.789,2.736-8,0"/>
<path style="fill:none;stroke:#0096E6;stroke-width:2;stroke-linecap:round;stroke-miterlimit:10;" d="M22,32.121
	c-2.211,2.736-5.789,2.736-8,0"/>
<path style="fill:none;stroke:#0096E6;stroke-width:2;stroke-linecap:round;stroke-miterlimit:10;" d="M10,40.121
	c-2.211,2.736-5.789,2.736-8,0"/>
<path style="fill:none;stroke:#0096E6;stroke-width:2;stroke-linecap:round;stroke-miterlimit:10;" d="M48,51.173
	c-2.211,2.736-5.789,2.736-8,0"/>
<path style="fill:#BDC3C7;" d="M29.001,38.225v-6h16v6h4V11.894c0-1.451,0.978-2.784,2.402-3.06
	c1.915-0.372,3.598,1.092,3.598,2.942c0,1.195,1.049,2.146,2.276,1.982c0.954-0.128,1.738-1.129,1.723-2.091
	c-0.062-4.055-3.591-7.285-7.747-6.852c-3.602,0.376-6.252,3.579-6.252,7.201v4.209h-16v-3.934c0-1.451,0.978-2.784,2.402-3.06
	c1.915-0.372,3.598,1.092,3.598,2.942c0,1.195,1.049,2.146,2.277,1.981c0.953-0.128,1.737-1.128,1.722-2.09
	c-0.062-4.056-3.591-7.286-7.747-6.853c-3.602,0.376-6.252,3.579-6.252,7.201v25.811H29.001z M45.001,28.225h-16v-8h16V28.225z"/>
<rect y="22.225" style="fill:#546A79;" width="25" height="4"/>
<rect x="49" y="22.225" style="fill:#546A79;" width="11" height="4"/>
<rect x="29" y="22.225" style="fill:#546A79;" width="16" height="4"/>
<g>
</g>
<g>
</g>
<g>
</g>
<g>
</g>
<g>
</g>
<g>
</g>
<g>
</g>
<g>
</g>
<g>
</g>
<g>
</g>
<g>
</g>
<g>
</g>
<g>
</g>
<g>
</g>
<g>
</g>
</svg>
