<?xml version="1.0" encoding="iso-8859-1"?>
<!-- Generator: Adobe Illustrator 19.0.0, SVG Export Plug-In . SVG Version: 6.00 Build 0)  -->
<svg version="1.1" id="Capa_1" xmlns="http://www.w3.org/2000/svg" xmlns:xlink="http://www.w3.org/1999/xlink" x="0px" y="0px"
	 viewBox="0 0 58 58" style="enable-background:new 0 0 58 58;" xml:space="preserve">
<g>
	<path style="fill:#F4E6CE;" d="M39.912,7H24h-5c-1.606,0-3.194,0-4.5,0c2.475,0,4.5,2.025,4.5,4.5V12v4v11v24h26V12.088
		C45,9.278,42.722,7,39.912,7z"/>
</g>
<path style="fill:#F0C419;" d="M39,23h-1.09c-0.154-0.909-0.51-1.749-1.024-2.471l0.772-0.771c0.391-0.391,0.391-1.024,0-1.415
	s-1.023-0.39-1.414,0l-0.772,0.772C34.749,18.6,33.909,18.244,33,18.09V17c0-0.552-0.447-1-1-1s-1,0.448-1,1v1.09
	c-0.909,0.154-1.749,0.51-2.471,1.024l-0.772-0.772c-0.391-0.39-1.023-0.39-1.414,0s-0.391,1.024,0,1.415l0.772,0.771
	C26.6,21.251,26.244,22.091,26.09,23H25c-0.553,0-1,0.448-1,1s0.447,1,1,1h1.09c0.154,0.909,0.51,1.749,1.024,2.471l-0.772,0.771
	c-0.391,0.391-0.391,1.024,0,1.415c0.195,0.195,0.451,0.293,0.707,0.293s0.512-0.098,0.707-0.292l0.772-0.772
	C29.251,29.4,30.091,29.756,31,29.91V31c0,0.552,0.447,1,1,1s1-0.448,1-1v-1.09c0.909-0.154,1.749-0.51,2.471-1.024l0.772,0.772
	c0.195,0.195,0.451,0.292,0.707,0.292s0.512-0.098,0.707-0.293c0.391-0.391,0.391-1.024,0-1.415l-0.772-0.771
	C37.4,26.749,37.756,25.909,37.91,25H39c0.553,0,1-0.448,1-1S39.553,23,39,23z M32,28c-2.206,0-4-1.794-4-4s1.794-4,4-4s4,1.794,4,4
	S34.206,28,32,28z"/>
<rect x="19" y="36" style="fill:#F0C419;" width="26" height="2"/>
<rect x="19" y="40" style="fill:#F0C419;" width="26" height="2"/>
<circle style="fill:#ECF0F1;" cx="55" cy="14" r="3"/>
<rect x="19" y="44" style="fill:#F0C419;" width="26" height="2"/>
<g>
	<rect x="10" y="16" style="fill:#FBD490;" width="9" height="11"/>
	<path style="fill:#FBD490;" d="M14.5,7C12.025,7,10,9.025,10,11.5V12h9v-0.5C19,9.025,16.975,7,14.5,7z"/>
</g>
<circle style="fill:#ECF0F1;" cx="3" cy="14" r="3"/>
<path style="fill:#95A5A5;" d="M5.221,12C5.7,12.532,6,13.228,6,14s-0.3,1.468-0.779,2H19v-4H5.221z"/>
<path style="fill:#95A5A5;" d="M53,12h-0.221H49h-4v4h4h3.779H53c0.552,0,1-0.895,1-2C54,12.895,53.552,12,53,12z"/>
<g>
</g>
<g>
</g>
<g>
</g>
<g>
</g>
<g>
</g>
<g>
</g>
<g>
</g>
<g>
</g>
<g>
</g>
<g>
</g>
<g>
</g>
<g>
</g>
<g>
</g>
<g>
</g>
<g>
</g>
</svg>
