<?xml version="1.0" encoding="iso-8859-1"?>
<!-- Generator: Adobe Illustrator 19.0.0, SVG Export Plug-In . SVG Version: 6.00 Build 0)  -->
<svg version="1.1" id="Capa_1" xmlns="http://www.w3.org/2000/svg" xmlns:xlink="http://www.w3.org/1999/xlink" x="0px" y="0px"
	 viewBox="0 0 60 60" style="enable-background:new 0 0 60 60;" xml:space="preserve">
<rect x="8" y="49" style="fill:#95A5A5;" width="2" height="6"/>
<g>
	<rect x="7" y="55" style="fill:#95A5A5;" width="4" height="4"/>
	<path style="fill:#BDC3C7;" d="M12,60H6v-6h6V60z M8,58h2v-2H8V58z"/>
</g>
<rect x="50" y="49" style="fill:#95A5A5;" width="2" height="6"/>
<g>
	<rect x="49" y="55" style="fill:#95A5A5;" width="4" height="4"/>
	<path style="fill:#BDC3C7;" d="M54,60h-6v-6h6V60z M50,58h2v-2h-2V58z"/>
</g>
<path style="fill:#BDC3C7;" d="M56,44v1c0,1.654-1.346,3-3,3h-3v-3h-2v3h-8v-3h-2v3h-2v-3h-2v3h-8v-3h-2v3h-2v-3h-2v3h-8v-3h-2v3H7
	c-1.654,0-3-1.346-3-3v-1H2v1c0,2.757,2.243,5,5,5h46c2.757,0,5-2.243,5-5v-1H56z"/>
<rect x="3" y="3" style="fill:#14A085;" width="16" height="11"/>
<line style="fill:none;stroke:#95A5A5;stroke-width:2;stroke-miterlimit:10;" x1="6" y1="0" x2="6" y2="3"/>
<line style="fill:none;stroke:#95A5A5;stroke-width:2;stroke-miterlimit:10;" x1="16" y1="0" x2="16" y2="3"/>
<rect x="41" y="3" style="fill:#556080;" width="16" height="11"/>
<g>
	<rect x="43" style="fill:#7F8C8D;" width="2" height="3"/>
	<rect x="53" style="fill:#7F8C8D;" width="2" height="3"/>
</g>
<polygon style="fill:#FFFFFF;" points="14.707,8.293 11,4.586 7.293,8.293 8.707,9.707 10,8.414 10,12 12,12 12,8.414 13.293,9.707 
	"/>
<polygon style="fill:#FFFFFF;" points="51.293,7.293 50,8.586 50,5 48,5 48,8.586 46.707,7.293 45.293,8.707 49,12.414 
	52.707,8.707 "/>
<rect x="3" y="58" style="fill:#BDC3C7;" width="12" height="2"/>
<rect x="45" y="58" style="fill:#BDC3C7;" width="12" height="2"/>
<path style="fill:#546A79;" d="M16,24c-3.866,0-7,3.134-7,7v14h14V31C23,27.134,19.866,24,16,24z M13,33c-0.552,0-1-0.448-1-1
	c0-0.552,0.448-1,1-1s1,0.448,1,1C14,32.552,13.552,33,13,33z M16,36c-0.552,0-1-0.448-1-1c0-0.552,0.448-1,1-1s1,0.448,1,1
	C17,35.552,16.552,36,16,36z M16,30c-0.552,0-1-0.448-1-1c0-0.552,0.448-1,1-1s1,0.448,1,1C17,29.552,16.552,30,16,30z M19,33
	c-0.552,0-1-0.448-1-1c0-0.552,0.448-1,1-1s1,0.448,1,1C20,32.552,19.552,33,19,33z"/>
<path style="fill:#38454F;" d="M30,24c-3.866,0-7,3.134-7,7v14h14V31C37,27.134,33.866,24,30,24z M27,33c-0.552,0-1-0.448-1-1
	c0-0.552,0.448-1,1-1s1,0.448,1,1C28,32.552,27.552,33,27,33z M30,36c-0.552,0-1-0.448-1-1c0-0.552,0.448-1,1-1s1,0.448,1,1
	C31,35.552,30.552,36,30,36z M30,30c-0.552,0-1-0.448-1-1c0-0.552,0.448-1,1-1s1,0.448,1,1C31,29.552,30.552,30,30,30z M33,33
	c-0.552,0-1-0.448-1-1c0-0.552,0.448-1,1-1s1,0.448,1,1C34,32.552,33.552,33,33,33z"/>
<path style="fill:#546A79;" d="M44,24c-3.866,0-7,3.134-7,7v14h14V31C51,27.134,47.866,24,44,24z M41,33c-0.552,0-1-0.448-1-1
	c0-0.552,0.448-1,1-1s1,0.448,1,1C42,32.552,41.552,33,41,33z M44,36c-0.552,0-1-0.448-1-1c0-0.552,0.448-1,1-1s1,0.448,1,1
	C45,35.552,44.552,36,44,36z M44,30c-0.552,0-1-0.448-1-1c0-0.552,0.448-1,1-1s1,0.448,1,1C45,29.552,44.552,30,44,30z M47,33
	c-0.552,0-1-0.448-1-1c0-0.552,0.448-1,1-1s1,0.448,1,1C48,32.552,47.552,33,47,33z"/>
<path style="fill:#38454F;" d="M9,45c0-1.933,3.134-4,7-4s7,2.067,7,4H9z"/>
<path style="fill:#546A79;" d="M23,45c0-1.933,3.134-4,7-4s7,2.067,7,4H23z"/>
<path style="fill:#38454F;" d="M37,45c0-1.933,3.134-4,7-4s7,2.067,7,4H37z"/>
<path style="fill:#556080;" d="M3,44L3,44c-1.1,0-2-0.9-2-2v-2c0-1.1,0.9-2,2-2h0c1.1,0,2,0.9,2,2v2C5,43.1,4.1,44,3,44z"/>
<path style="fill:#556080;" d="M57,44L57,44c1.1,0,2-0.9,2-2v-1c0-1.1-0.9-2-2-2h0c-1.1,0-2,0.9-2,2v1C55,43.1,55.9,44,57,44z"/>
<g>
</g>
<g>
</g>
<g>
</g>
<g>
</g>
<g>
</g>
<g>
</g>
<g>
</g>
<g>
</g>
<g>
</g>
<g>
</g>
<g>
</g>
<g>
</g>
<g>
</g>
<g>
</g>
<g>
</g>
</svg>
