<?xml version="1.0" encoding="iso-8859-1"?>
<!-- Generator: Adobe Illustrator 19.0.0, SVG Export Plug-In . SVG Version: 6.00 Build 0)  -->
<svg version="1.1" id="Capa_1" xmlns="http://www.w3.org/2000/svg" xmlns:xlink="http://www.w3.org/1999/xlink" x="0px" y="0px"
	 viewBox="0 0 59 59" style="enable-background:new 0 0 59 59;" xml:space="preserve">
<path style="fill:#ECF0F1;" d="M58.5,36c0-3.869-8.165-9.58-13.178-12.721c-2.338-1.465-5.234-1.714-7.796-0.689l-5.896,2.359
	c-0.078,0.031-0.131,0.101-0.136,0.185C31.436,26.176,30.811,33,24.5,33L4.213,32.034c-0.449-0.021-0.868,0.216-1.077,0.614
	c-0.637,1.21-1.82,3.852-1.096,5.624C2.219,38.711,2.646,39,3.12,39H55.5C57.157,39,58.5,37.657,58.5,36L58.5,36z"/>
<path style="fill:#95A5A5;" d="M51.917,44H9.083C7.104,44,5.5,42.396,5.5,40.417V39h50v1.417C55.5,42.396,53.896,44,51.917,44z"/>
<path style="fill:#BDC3C7;" d="M37.527,22.589c1.272-0.509,2.628-0.702,3.956-0.59l-3.428-4h-6l4.326,5.048L37.527,22.589z"/>
<path style="fill:#E6E7E8;" d="M42.137,21.228l-3.322-3.878c-0.19-0.222-0.468-0.35-0.76-0.35h-6c-0.013,0-0.025,0.005-0.038,0.005
	c-0.029,0.001-0.056,0.009-0.085,0.012c-0.094,0.012-0.184,0.036-0.269,0.073c-0.018,0.008-0.038,0.006-0.056,0.015l-4,2
	c-0.494,0.247-0.694,0.848-0.447,1.342C27.336,20.798,27.688,21,28.056,21c0.15,0,0.303-0.034,0.446-0.105l3.302-1.651l3.818,4.454
	c0.194,0.227,0.474,0.35,0.76,0.35c0.125,0,0.251-0.023,0.371-0.071l1.146-0.458c1.112-0.446,2.307-0.625,3.499-0.522
	C41.43,23,41.469,23,41.493,23c0.567-0.015,1.009-0.444,1.009-1C42.502,21.688,42.36,21.41,42.137,21.228z M37.155,21.661
	l-0.481,0.192L34.229,19h3.366l1.771,2.067C38.61,21.176,37.871,21.375,37.155,21.661z"/>
<path style="fill:#556080;" d="M24.5,33c4.53,0,6.124-3.509,6.688-5.879L13.334,23.02c-1.162-0.151-2.282,0.561-2.805,1.782
	l-1.751,4.089c-0.511,1.193-0.27,2.499,0.4,3.379L24.5,33z"/>
<line style="fill:none;stroke:#67B9CC;stroke-width:2;stroke-linecap:round;stroke-miterlimit:10;" x1="6.5" y1="48" x2="54.5" y2="48"/>
<line style="fill:none;stroke:#67B9CC;stroke-width:2;stroke-linecap:round;stroke-miterlimit:10;" x1="11.5" y1="53" x2="49.5" y2="53"/>
<line style="fill:none;stroke:#67B9CC;stroke-width:2;stroke-linecap:round;stroke-miterlimit:10;" x1="16.5" y1="58" x2="44.5" y2="58"/>
<g>
	<path style="fill:#F29C1F;" d="M9.5,14c-2.757,0-5-2.243-5-5s2.243-5,5-5s5,2.243,5,5S12.257,14,9.5,14z"/>
	<path style="fill:#F0C419;" d="M9.5,15c-3.309,0-6-2.691-6-6s2.691-6,6-6s6,2.691,6,6S12.809,15,9.5,15z M9.5,5
		c-2.206,0-4,1.794-4,4s1.794,4,4,4s4-1.794,4-4S11.706,5,9.5,5z"/>
</g>
<path style="fill:#F0C419;" d="M9.5,18c-0.553,0-1-0.447-1-1v-3c0-0.553,0.447-1,1-1s1,0.447,1,1v3C10.5,17.553,10.053,18,9.5,18z"
	/>
<path style="fill:#F0C419;" d="M9.5,5c-0.553,0-1-0.447-1-1V1c0-0.553,0.447-1,1-1s1,0.447,1,1v3C10.5,4.553,10.053,5,9.5,5z"/>
<path style="fill:#F0C419;" d="M17.5,10h-3c-0.553,0-1-0.447-1-1s0.447-1,1-1h3c0.553,0,1,0.447,1,1S18.053,10,17.5,10z"/>
<path style="fill:#F0C419;" d="M4.5,10h-3c-0.553,0-1-0.447-1-1s0.447-1,1-1h3c0.553,0,1,0.447,1,1S5.053,10,4.5,10z"/>
<path style="fill:#F0C419;" d="M15.157,15.657c-0.256,0-0.512-0.098-0.707-0.293l-2.122-2.122c-0.391-0.391-0.391-1.023,0-1.414
	c0.391-0.391,1.023-0.391,1.414,0l2.122,2.122c0.391,0.391,0.391,1.023,0,1.414C15.669,15.56,15.413,15.657,15.157,15.657z"/>
<path style="fill:#F0C419;" d="M5.965,6.465c-0.256,0-0.512-0.098-0.707-0.293L3.136,4.05c-0.391-0.391-0.391-1.023,0-1.414
	s1.023-0.391,1.414,0l2.122,2.122c0.391,0.391,0.391,1.023,0,1.414C6.477,6.367,6.221,6.465,5.965,6.465z"/>
<path style="fill:#F0C419;" d="M13.035,6.465c-0.256,0-0.512-0.098-0.707-0.293c-0.391-0.391-0.391-1.023,0-1.414l2.122-2.122
	c0.391-0.391,1.023-0.391,1.414,0s0.391,1.023,0,1.414l-2.122,2.122C13.547,6.367,13.291,6.465,13.035,6.465z"/>
<path style="fill:#F0C419;" d="M3.843,15.657c-0.256,0-0.512-0.098-0.707-0.293c-0.391-0.391-0.391-1.023,0-1.414l2.122-2.122
	c0.391-0.391,1.023-0.391,1.414,0c0.391,0.391,0.391,1.023,0,1.414L4.55,15.364C4.354,15.56,4.099,15.657,3.843,15.657z"/>
<path style="fill:#D75E72;" d="M28.106,32H56.48c-1.153-1.33-2.699-2.698-4.359-4H30.944C30.484,29.415,29.639,31,28.106,32z"/>
<g>
</g>
<g>
</g>
<g>
</g>
<g>
</g>
<g>
</g>
<g>
</g>
<g>
</g>
<g>
</g>
<g>
</g>
<g>
</g>
<g>
</g>
<g>
</g>
<g>
</g>
<g>
</g>
<g>
</g>
</svg>
